<?xml version="1.0" encoding="UTF-8"?>
<svg id="Livello_1" xmlns="http://www.w3.org/2000/svg" version="1.1" viewBox="0 0 758.09 216.26">
  <!-- Generator: Adobe Illustrator 30.2.1, SVG Export Plug-In . SVG Version: 2.1.1 Build 1)  -->
  <defs>
    <style>
      .st0 {
        fill: #fff;
      }

      .st1 {
        fill: red;
      }

      .st2 {
        isolation: isolate;
      }
    </style>
  </defs>
  <rect class="st1" y="0" width="44.91" height="44.91"/>
  <g class="st2">
    <g class="st2">
      <path class="st0" d="M92.98,17.17v16.71l-5.97,5.97h-22.68l-5.97-5.97v-16.71l5.97-5.97h22.68l5.97,5.97ZM88.21,18.36l-2.39-2.39h-20.29l-2.39,2.39v14.32l2.39,2.39h20.29l2.39-2.39v-14.32ZM82.34,18.41l3.48,3.48v2.59h-4.87v-1.19l-.7-.7h-9.15l-.7.7v4.58l.7.7h9.15l.7-.7v-1.19h4.87v2.59l-3.48,3.48h-13.33l-3.48-3.48v-7.36l3.48-3.48h13.33Z"/>
      <path class="st0" d="M105.43,30.3v2.39h26.26v7.16h-34.61v-10.74l5.97-5.97h19.1l1.19-1.19v-2.39l-1.19-1.19h-23.87v-7.16h27.45l5.97,5.97v5.97l-5.97,5.97h-19.1l-1.19,1.19Z"/>
      <path class="st0" d="M171.6,17.17v16.71l-5.97,5.97h-23.87l-5.97-5.97v-16.71l5.97-5.97h23.87l5.97,5.97ZM163.24,19.56l-1.19-1.19h-16.71l-1.19,1.19v11.94l1.19,1.19h16.71l1.19-1.19v-11.94Z"/>
      <path class="st0" d="M184.04,30.3v2.39h26.26v7.16h-34.61v-10.74l5.97-5.97h19.1l1.19-1.19v-2.39l-1.19-1.19h-23.87v-7.16h27.45l5.97,5.97v5.97l-5.97,5.97h-19.1l-1.19,1.19Z"/>
      <path class="st0" d="M250.2,27.91v5.97l-5.97,5.97h-23.87l-5.97-5.97v-16.71l5.97-5.97h28.65v7.16h-25.07l-1.19,1.19v2.39h21.49l5.97,5.97ZM241.85,29.11l-1.19-1.19h-17.9v3.58l1.19,1.19h16.71l1.19-1.19v-2.39Z"/>
      <path class="st0" d="M273.15,29.13v-5.97h25.07v5.97h-25.07Z"/>
      <path class="st0" d="M358.2,17.17v22.68h-8.36v-7.16h-20.29v7.16h-8.35v-22.68l5.97-5.97h25.07l5.97,5.97ZM349.84,25.53v-5.97l-1.19-1.19h-17.9l-1.19,1.19v5.97h20.29Z"/>
      <path class="st0" d="M399.28,25.53l-4.18,4.18,4.18,4.18v5.97h-8.36v-5.97l-1.19-1.19h-19.1v7.16h-8.35V11.2h31.03l5.97,5.97v8.36ZM370.63,25.53h19.1l1.19-1.19v-4.78l-1.19-1.19h-19.1v7.16Z"/>
      <path class="st0" d="M440.36,17.17v22.68h-8.36v-7.16h-20.29v7.16h-8.36v-22.68l5.97-5.97h25.07l5.97,5.97ZM432.01,25.53v-5.97l-1.19-1.19h-17.9l-1.19,1.19v5.97h20.29Z"/>
      <path class="st0" d="M480.25,27.91v5.97l-5.97,5.97h-28.65v-7.16h25.07l1.19-1.19v-1.19l-1.19-1.19h-20.29l-5.97-5.97v-5.97l5.97-5.97h28.65v7.16h-25.07l-1.19,1.19v1.19l1.19,1.19h20.29l5.97,5.97Z"/>
      <path class="st0" d="M521.34,17.17v22.68h-8.36v-7.16h-20.29v7.16h-8.36v-22.68l5.97-5.97h25.07l5.97,5.97ZM512.99,25.53v-5.97l-1.19-1.19h-17.9l-1.19,1.19v5.97h20.29Z"/>
      <path class="st0" d="M561.23,29.11v10.74h-8.36v-9.55l-1.19-1.19h-17.9v10.74h-8.36V11.2h8.36v10.74h15.52l1.19-1.19v-9.55h8.36v9.55l-2.98,2.98,5.37,5.37Z"/>
      <path class="st0" d="M602.33,17.17v22.68h-8.36v-7.16h-20.29v7.16h-8.36v-22.68l5.97-5.97h25.07l5.97,5.97ZM593.97,25.53v-5.97l-1.19-1.19h-17.9l-1.19,1.19v5.97h20.29Z"/>
    </g>
  </g>
  <g>
    <path d="M37.77,22.46c0,8.46-6.86,15.32-15.32,15.32s-15.32-6.86-15.32-15.32,6.86-15.32,15.32-15.32,15.32,6.86,15.32,15.32ZM35.63,22.46c0-7.28-5.9-13.18-13.18-13.18s-13.18,5.9-13.18,13.18,5.9,13.18,13.18,13.18,13.18-5.9,13.18-13.18Z"/>
    <path d="M23.64,35.1c-.8.12-1.56.11-2.37,0v-5.55l-4.2-4.18c-2.19,1.22-4.84.69-6.31-1.27-1.43-1.89-1.25-4.6.45-6.31,1.69-1.69,4.41-1.88,6.33-.41,1.92,1.47,2.49,4.08,1.22,6.28l2.51,2.49v-6.9c-2.44-.64-3.89-2.93-3.58-5.3.31-2.38,2.33-4.17,4.72-4.19s4.46,1.73,4.81,4.1-1.11,4.74-3.58,5.38l.02,6.88,2.49-2.45c-1.23-2.14-.72-4.77,1.16-6.25,1.9-1.5,4.61-1.35,6.33.31,1.74,1.67,1.95,4.38.55,6.3-1.44,1.96-4.09,2.6-6.35,1.32l-4.2,4.17v5.57Z"/>
  </g>
  <g>
    <polygon class="st0" points="12.27 55.3 0 55.3 0 67.57 0 71.33 0 105.1 53.41 105.1 53.41 166.45 47.88 166.45 47.88 110.63 0 110.63 0 197.5 0 203.98 0 216.26 12.27 216.26 18.75 216.26 101.29 216.26 101.29 71.33 101.29 67.57 101.29 55.3 89.02 55.3 12.27 55.3"/>
    <polygon class="st0" points="121.74 55.3 109.47 55.3 109.47 67.57 109.47 75.76 109.47 188.61 109.47 203.98 109.47 216.26 121.74 216.26 198.49 216.26 210.76 216.26 210.76 203.98 210.76 188.61 210.76 138.54 162.88 138.54 162.88 166.45 157.35 166.45 157.35 105.1 162.88 105.1 162.88 133.01 210.76 133.01 210.76 75.76 210.76 67.57 210.76 55.3 198.49 55.3 121.74 55.3"/>
    <path class="st0" d="M284.99,55.3h-66.06v160.96h47.88v-30.56h5.53v30.56h47.88v-43.07l-12.27-12.27,12.27-12.27V55.3h-35.24,0ZM272.35,135.66h-5.53v-30.56h5.53v30.56Z"/>
    <path class="st0" d="M340.67,55.3h-12.27v160.96h101.29V55.3h-89.02ZM381.81,166.45h-5.53v-61.35h5.53v61.35Z"/>
    <polygon class="st0" points="437.87 55.3 437.87 71.93 437.87 216.26 485.75 216.26 485.75 105.1 491.28 105.1 491.28 216.26 539.16 216.26 539.16 71.93 539.16 67.57 539.16 55.3 526.89 55.3 437.87 55.3"/>
    <polygon class="st0" points="559.61 55.3 547.34 55.3 547.34 67.57 547.34 71.93 547.34 199.63 547.34 203.98 547.34 216.26 559.61 216.26 645.25 216.26 648.63 216.26 648.63 166.45 595.22 166.45 595.22 105.1 600.75 105.1 600.75 160.92 648.63 160.92 648.63 71.93 648.63 67.57 648.63 55.3 636.36 55.3 559.61 55.3"/>
    <path class="st0" d="M745.82,55.3h-89.02v160.96h47.88v-30.56h5.53v30.56h47.88v-43.07l-12.27-12.27,12.27-12.27V55.3h-12.27ZM710.22,135.66h-5.53v-30.56h5.53v30.56Z"/>
  </g>
</svg>