<?xml version="1.0" encoding="UTF-8"?>
<svg id="Livello_1" data-name="Livello 1" xmlns="http://www.w3.org/2000/svg" viewBox="0 0 267.31 759.49">
  <defs>
    <style>
      .cls-1 {
        fill: #fff;
      }

      .cls-2 {
        fill: #fff800;
      }
    </style>
  </defs>
  <path class="cls-1" d="M255.92,750.25v2.87h-7.13v-2.87h.59v2.24h5.95v-2.24h.59Z"/>
  <path class="cls-1" d="M254.67,733.83l1.26,1.35v3.84h-.59v-1.08h-5.95v1.08h-.59v-3.84l1.27-1.35h4.6ZM254.43,734.46h-4.12l-.92.97v1.88h5.95v-1.88l-.91-.97Z"/>
  <path class="cls-1" d="M255.86,726.82v.63h-2.11v4.01h2.11v.63h-2.48l-4.52-2.4v-.47l4.52-2.4h2.48ZM253.16,727.64l-3.4,1.81,3.4,1.81v-3.62Z"/>
  <path class="cls-1" d="M255.88,719.81v.63h-5.57l3.81,2-3.81,2h5.57v.63h-7.06v-.55l3.97-2.09-3.97-2.08v-.55h7.06Z"/>
  <path class="cls-1" d="M255.86,712.8v.63h-2.11v4.01h2.11v.63h-2.48l-4.52-2.4v-.47l4.52-2.4h2.48ZM253.16,713.62l-3.4,1.81,3.4,1.81v-3.62Z"/>
  <path class="cls-1" d="M255.92,705.79v3.91l-1.26,1.35h-4.6l-1.27-1.35v-3.83h.59v3.58l.92.97h4.12l.91-.97v-3.04h-2.67v1.08h-.59v-1.71h3.86Z"/>
  <path class="cls-1" d="M255.92,698.85v5.18h-7.13v-5.18h.59v4.56h2.68v-2.24h.59v2.24h2.67v-4.56h.59Z"/>
  <path class="cls-1" d="M255.92,687.07v2.87h-.59v-2.24h-5.95v2.24h-.59v-2.87h7.13Z"/>
  <path class="cls-1" d="M255.82,654.91v2.79h-.59v-1.09h-5.53l.75.79-.42.45-1.34-1.42v-.44h6.54v-1.08h.59Z"/>
  <path class="cls-1" d="M254.56,647.85l1.26,1.35v1.41l-1.26,1.35h-4.6l-1.27-1.35v-1.41l1.27-1.35h4.6ZM254.32,648.48h-4.12l-.92.97v.91l.92.97h4.12l.91-.97v-.92l-.91-.97Z"/>
  <path class="cls-1" d="M255.82,606.9v2.79h-.59v-1.09h-5.53l.75.79-.42.45-1.34-1.42v-.44h6.54v-1.08h.59Z"/>
  <path class="cls-1" d="M254.56,599.84l1.26,1.35v1.41l-1.26,1.35h-4.6l-1.27-1.35v-1.41l1.27-1.35h4.6ZM254.32,600.47h-4.12l-.92.97v.91l.92.97h4.12l.91-.97v-.92l-.91-.97Z"/>
  <path class="cls-1" d="M255.82,631.41v2.79h-.59v-1.09h-5.53l.75.79-.42.45-1.34-1.42v-.44h6.54v-1.08h.59Z"/>
  <path class="cls-1" d="M254.56,624.35l1.26,1.35v1.41l-1.26,1.35h-4.6l-1.27-1.35v-1.41l1.27-1.35h4.6ZM254.32,624.97h-4.12l-.92.97v.91l.92.97h4.12l.91-.97v-.92l-.91-.97Z"/>
  <path class="cls-1" d="M249.05,380.97l6.91,4.91-.29.54-6.91-4.9.29-.55Z"/>
  <path class="cls-1" d="M249.05,373.96l6.91,4.91-.29.54-6.91-4.9.29-.55Z"/>
  <path class="cls-1" d="M252.66,254.88v2.24h2.11v.63h-2.11v2.24h-.59v-2.24h-2.11v-.63h2.11v-2.24h.59Z"/>
  <path class="cls-1" d="M254.67,248.95l1.26,1.35v1.41l-1.26,1.35h-4.6l-1.27-1.35v-1.41l1.27-1.35h4.6ZM254.43,249.57h-4.12l-.92.97v.91l.92.97h4.12l.91-.97v-.92l-.91-.97Z"/>
  <path class="cls-1" d="M177.86,302.98v2.87h-7.13v-2.87h.59v2.24h5.95v-2.24h.59Z"/>
  <path class="cls-1" d="M176.6,286.56l1.26,1.35v3.84h-.59v-1.08h-5.95v1.08h-.59v-3.84l1.27-1.35h4.6ZM176.36,287.19h-4.12l-.92.97v1.88h5.95v-1.88l-.91-.97Z"/>
  <path class="cls-1" d="M177.86,274.85v2.87h-.59v-2.24h-5.95v2.24h-.59v-2.87h7.13Z"/>
  <path class="cls-1" d="M194.58,513.88v2.87h-7.13v-2.87h.59v2.24h5.95v-2.24h.59Z"/>
  <path class="cls-1" d="M194.51,497.46v.63h-3.2v4.01h3.2v.63h-6.99v-.63h3.2v-4.01h-3.2v-.63h6.99Z"/>
  <path class="cls-1" d="M194.58,485.76v2.87h-.59v-2.24h-5.95v2.24h-.59v-2.87h7.13Z"/>
  <path class="cls-1" d="M7.13,233.31v2.87H0v-2.87h.59v2.24h5.95v-2.24h.59Z"/>
  <path class="cls-1" d="M5.87,216.89l1.26,1.35v3.84h-.59v-1.08H.59v1.08h-.59v-3.84l1.27-1.35h1.33l.97,1.03.97-1.03h1.33ZM2.35,217.52h-.84l-.92.97v1.88h2.68v-1.88l-.92-.97ZM5.63,217.52h-.85l-.91.97v1.88h2.67v-1.88l-.91-.97Z"/>
  <path class="cls-1" d="M7.13,205.19v2.87h-.59v-2.24H.59v2.24h-.59v-2.87h7.13Z"/>
  <path class="cls-1" d="M218.71,101.41v2.87h-7.13v-2.87h.59v2.24h5.95v-2.24h.59Z"/>
  <path class="cls-1" d="M217.38,84.92l1.32,1.42v2.57l-1.26,1.35h-4.6l-1.27-1.35v-2.57l1.34-1.42.42.45-1.16,1.23v2.06l.92.97h4.12l.91-.97v-2.07l-1.16-1.23.42-.45Z"/>
  <path class="cls-1" d="M218.71,73.29v2.87h-.59v-2.24h-5.95v2.24h-.59v-2.87h7.13Z"/>
  <path class="cls-1" d="M7.13,475.05v2.87H0v-2.87h.59v2.24h5.95v-2.24h.59Z"/>
  <path class="cls-1" d="M7.06,458.63v.63h-2.11v4.01h2.11v.63h-2.48l-4.52-2.4v-.47l4.52-2.4h2.48ZM4.36,459.45l-3.4,1.81,3.4,1.81v-3.62Z"/>
  <path class="cls-1" d="M7.13,446.93v2.87h-.59v-2.24H.59v2.24h-.59v-2.87h7.13Z"/>
  <path class="cls-1" d="M7.13,666.51v2.87H0v-2.87h.59v2.24h5.95v-2.24h.59Z"/>
  <path class="cls-1" d="M7.13,650.09v3.91l-1.26,1.35H1.27l-1.27-1.35v-3.83h.59v3.58l.92.97h4.12l.91-.97v-3.04h-2.67v1.08h-.59v-1.71h3.86Z"/>
  <path class="cls-1" d="M7.13,638.39v2.87h-.59v-2.24H.59v2.24h-.59v-2.87h7.13Z"/>
  <path class="cls-2" d="M125.14.53v11.47l29.94,29.94v99.15l52.44,52.44V42.84L165.77,1.09s-40.63-.2-40.63-.56Z"/>
  <path class="cls-2" d="M86.41,63.64v69.92l52.62,52.62h40.97v-10.67l-43.3-43.3v-18.02s-50.83-51.1-50.29-50.56Z"/>
  <path class="cls-2" d="M12.19,130.33v150.6l40.34,40.34h27.43v46.08l48.16,48.16v118.58l38.67,38.67h41.54v-9.63l-27.79-27.79v-58.63l-26.09-26.09v-10.13l12.59,12.59h41.28v-11.16l-102.37-102.37v-16.67l-42.22-42.22v-100.49s-52.26-50.56-51.55-49.84Z"/>
  <polygon class="cls-2" points="39.53 376.04 79.33 376.04 119.6 416.31 119.6 567.52 81.04 528.96 81.04 428.75 39.85 387.56 39.53 376.04"/>
  <path class="cls-2" d="M12.18,369.59v151.68l39.9,39.9h41.24v-10.31l-30.66-30.66v-98.97s-50.03-52.08-50.48-51.63Z"/>
  <path class="cls-2" d="M26.08,122.98v11.83l70.33,70.33v17.08l17.14,17.14v98.23l39.83,39.83h41.05v-11.32l-30.12-30.12v-98.7l-29.85-29.85v-15.87l-68.04-68.04s-40.34-1.08-40.34-.54Z"/>
  <path class="cls-2" d="M140.38,192.09h41.68l39.4,39.4v152.35l-38.66-38.66v-99.57l-42.46-42.46s-.5-11.06.03-11.06Z"/>
  <path class="cls-2" d="M12.18,561.16v151.05l40.45,40.45h40.68v-11.41l-29.99-29.99v-99.1s-50.39-50.24-51.15-51Z"/>
  <path class="cls-2" d="M39.53,567.52v12.91l29.58,29.58v98.7l50.26,50.26v-150.3l-40.47-40.47s-39.77-.27-39.36-.67Z"/>
  <path class="cls-1" d="M17.41,300.41v55.98h-4.18v-55.98h4.18M18.46,299.35h-6.28v58.09h6.28v-58.09h0Z"/>
  <path class="cls-1" d="M17.41,31.34v91.08h-4.18V31.34h4.18M18.46,30.29h-6.28v93.18h6.28V30.29h0Z"/>
  <path class="cls-1" d="M30.27,31.34v84.35h-4.18V31.34h4.18M31.33,30.29h-6.28v86.46h6.28V30.29h0Z"/>
  <path class="cls-1" d="M43.59,1.58v113.4h-4.18V1.58h4.18M44.64.53h-6.28v115.51h6.28V.53h0Z"/>
  <path class="cls-1" d="M132.45,609.84v148.07h-4.18v-148.07h4.18M133.5,608.79h-6.28v150.17h6.28v-150.17h0Z"/>
  <path class="cls-1" d="M145.76,609.84v148.07h-4.18v-148.07h4.18M146.82,608.79h-6.28v150.17h6.28v-150.17h0Z"/>
  <path class="cls-1" d="M159.08,609.84v148.07h-4.18v-148.07h4.18M160.13,608.79h-6.28v150.17h6.28v-150.17h0Z"/>
  <path class="cls-1" d="M182.94,731.94v25.97h-4.18v-25.97h4.18M184,730.89h-6.28v28.08h6.28v-28.08h0Z"/>
  <path class="cls-1" d="M206.81,731.94v25.97h-4.18v-25.97h4.18M207.86,730.89h-6.28v28.08h6.28v-28.08h0Z"/>
  <rect class="cls-1" x="234.63" y="722.46" width="3.25" height="36.51"/>
  <path class="cls-1" d="M220.12,609.84v148.07h-4.18v-148.07h4.18M221.18,608.79h-6.28v150.17h6.28v-150.17h0Z"/>
  <path class="cls-1" d="M220.12,523.44v48.26h-4.18v-48.26h4.18M221.18,522.39h-6.28v50.37h6.28v-50.37h0Z"/>
  <path class="cls-1" d="M56.9,1.58v26.94h-4.18V1.58h4.18M57.95.53h-6.28v29.04h6.28V.53h0Z"/>
  <path class="cls-1" d="M80.54,1.58v26.94h-4.18V1.58h4.18M81.6.53h-6.28v29.04h6.28V.53h0Z"/>
  <path class="cls-1" d="M117.05,1.58v26.94h-4.18V1.58h4.18M118.11.53h-6.28v29.04h6.28V.53h0Z"/>
  <path class="cls-1" d="M107.05,1.58v26.94h-20.69V1.58h20.69M108.11.53h-22.79v29.04h22.79V.53h0Z"/>
  <rect class="cls-1" x="12.18" y=".53" width="3.14" height="7.98"/>
  <rect class="cls-1" x="0" y="750.99" width="3.14" height="7.98"/>
  <rect class="cls-1" x="8.34" y="750.99" width="3.14" height="7.98"/>
  <rect class="cls-1" x="250.94" y="304.48" width="3.14" height="7.98"/>
  <rect class="cls-1" x="234.77" y=".53" width="3.14" height="7.98"/>
  <rect class="cls-1" x="214.05" y=".53" width="3.14" height="7.98"/>
  <rect class="cls-1" x="234.63" y="202.04" width="3.14" height="18.49"/>
  <path class="cls-1" d="M266.79,4.21c-.13,0-.27-.05-.37-.15l-3.15-3.15c-.21-.21-.21-.54,0-.74s.54-.21.74,0l3.15,3.15c.21.21.21.54,0,.74-.1.1-.24.15-.37.15Z"/>
  <path class="cls-1" d="M266.38,16.31c-.13,0-.27-.05-.37-.15l-15.26-15.26c-.21-.21-.21-.54,0-.74s.54-.21.74,0l15.26,15.26c.21.21.21.54,0,.74-.1.1-.24.15-.37.15Z"/>
  <path class="cls-1" d="M254.08,219.44c-.13,0-.27-.05-.37-.15l-3.15-3.15c-.21-.21-.21-.54,0-.74s.54-.21.74,0l3.15,3.15c.21.21.21.54,0,.74-.1.1-.24.15-.37.15Z"/>
  <path class="cls-1" d="M266.59,219.44c-.13,0-.27-.05-.37-.15l-15.26-15.26c-.21-.21-.21-.54,0-.74s.54-.21.74,0l15.26,15.26c.21.21.21.54,0,.74-.1.1-.24.15-.37.15Z"/>
  <path class="cls-1" d="M266.38,27.4c-.13,0-.27-.05-.37-.15l-15.26-15.26c-.21-.21-.21-.54,0-.74s.54-.21.74,0l15.26,15.26c.21.21.21.54,0,.74-.1.1-.24.15-.37.15Z"/>
  <path class="cls-1" d="M266.38,38.66c-.13,0-.27-.05-.37-.15l-15.26-15.26c-.21-.21-.21-.54,0-.74s.54-.21.74,0l15.26,15.26c.21.21.21.54,0,.74-.1.1-.24.15-.37.15Z"/>
  <path class="cls-1" d="M266.38,50.59c-.13,0-.27-.05-.37-.15l-15.26-15.26c-.21-.21-.21-.54,0-.74s.54-.21.74,0l15.26,15.26c.21.21.21.54,0,.74-.1.1-.24.15-.37.15Z"/>
  <path class="cls-1" d="M266.38,61.67c-.13,0-.27-.05-.37-.15l-15.26-15.26c-.21-.21-.21-.54,0-.74s.54-.21.74,0l15.26,15.26c.21.21.21.54,0,.74-.1.1-.24.15-.37.15Z"/>
  <path class="cls-1" d="M266.38,72.93c-.13,0-.27-.05-.37-.15l-15.26-15.26c-.21-.21-.21-.54,0-.74s.54-.21.74,0l15.26,15.26c.21.21.21.54,0,.74-.1.1-.24.15-.37.15Z"/>
  <path class="cls-1" d="M266.38,84.69c-.13,0-.27-.05-.37-.15l-15.26-15.26c-.21-.21-.21-.54,0-.74s.54-.21.74,0l15.26,15.26c.21.21.21.54,0,.74-.1.1-.24.15-.37.15Z"/>
  <path class="cls-1" d="M266.38,95.78c-.13,0-.27-.05-.37-.15l-15.26-15.26c-.21-.21-.21-.54,0-.74s.54-.21.74,0l15.26,15.26c.21.21.21.54,0,.74-.1.1-.24.15-.37.15Z"/>
  <path class="cls-1" d="M266.38,107.04c-.13,0-.27-.05-.37-.15l-15.26-15.26c-.21-.21-.21-.54,0-.74s.54-.21.74,0l15.26,15.26c.21.21.21.54,0,.74-.1.1-.24.15-.37.15Z"/>
  <path class="cls-1" d="M266.38,118.63c-.13,0-.27-.05-.37-.15l-15.26-15.26c-.21-.21-.21-.54,0-.74s.54-.21.74,0l15.26,15.26c.21.21.21.54,0,.74-.1.1-.24.15-.37.15Z"/>
  <path class="cls-1" d="M266.38,129.72c-.13,0-.27-.05-.37-.15l-15.26-15.26c-.21-.21-.21-.54,0-.74s.54-.21.74,0l15.26,15.26c.21.21.21.54,0,.74-.1.1-.24.15-.37.15Z"/>
  <path class="cls-1" d="M266.38,140.98c-.13,0-.27-.05-.37-.15l-15.26-15.26c-.21-.21-.21-.54,0-.74s.54-.21.74,0l15.26,15.26c.21.21.21.54,0,.74-.1.1-.24.15-.37.15Z"/>
  <path class="cls-1" d="M266.38,152.91c-.13,0-.27-.05-.37-.15l-15.26-15.26c-.21-.21-.21-.54,0-.74s.54-.21.74,0l15.26,15.26c.21.21.21.54,0,.74-.1.1-.24.15-.37.15Z"/>
  <path class="cls-1" d="M266.38,163.99c-.13,0-.27-.05-.37-.15l-15.26-15.26c-.21-.21-.21-.54,0-.74s.54-.21.74,0l15.26,15.26c.21.21.21.54,0,.74-.1.1-.24.15-.37.15Z"/>
  <path class="cls-1" d="M266.38,175.25c-.13,0-.27-.05-.37-.15l-15.26-15.26c-.21-.21-.21-.54,0-.74s.54-.21.74,0l15.26,15.26c.21.21.21.54,0,.74-.1.1-.24.15-.37.15Z"/>
  <path class="cls-1" d="M266.38,187.01c-.13,0-.27-.05-.37-.15l-15.26-15.26c-.21-.21-.21-.54,0-.74s.54-.21.74,0l15.26,15.26c.21.21.21.54,0,.74-.1.1-.24.15-.37.15Z"/>
  <path class="cls-1" d="M266.38,198.1c-.13,0-.27-.05-.37-.15l-15.26-15.26c-.21-.21-.21-.54,0-.74s.54-.21.74,0l15.26,15.26c.21.21.21.54,0,.74-.1.1-.24.15-.37.15Z"/>
  <path class="cls-1" d="M266.38,209.36c-.13,0-.27-.05-.37-.15l-15.26-15.26c-.21-.21-.21-.54,0-.74s.54-.21.74,0l15.26,15.26c.21.21.21.54,0,.74-.1.1-.24.15-.37.15Z"/>
  <polygon class="cls-1" points="266.79 759.49 234.1 759.49 234.1 233.69 266.79 233.69 266.79 234.74 235.16 234.74 235.16 758.44 266.79 758.44 266.79 759.49"/>
  <polygon class="cls-1" points="70.08 77.39 67.4 74.72 66.66 75.46 68.8 77.61 62.95 77.61 62.95 78.66 68.81 78.66 66.66 80.82 67.4 81.55 70.08 78.89 70.83 78.14 70.08 77.39"/>
  <polygon class="cls-1" points="85.91 252.01 85.91 255.79 86.97 255.79 86.97 252.76 91.11 256.9 91.85 256.15 87.71 252.01 90.75 252.01 90.74 250.96 86.97 250.95 85.91 250.95 85.91 252.01"/>
  <polygon class="cls-1" points="190.75 397.08 188.08 399.76 188.82 400.51 190.97 398.36 190.97 404.22 192.02 404.22 192.02 398.35 194.18 400.51 194.91 399.76 192.25 397.08 191.5 396.34 190.75 397.08"/>
  <polygon class="cls-1" points="251.99 614.3 249.32 616.98 250.06 617.72 252.21 615.58 252.21 621.43 253.26 621.43 253.26 615.57 255.42 617.72 256.15 616.98 253.49 614.3 252.74 613.55 251.99 614.3"/>
  <polygon class="cls-1" points="251.99 637.08 249.32 639.76 250.06 640.51 252.21 638.37 252.21 644.22 253.26 644.22 253.26 638.35 255.42 640.51 256.15 639.76 253.49 637.08 252.74 636.34 251.99 637.08"/>
  <polygon class="cls-1" points="75.17 474.46 72.5 471.78 71.75 472.53 73.89 474.67 68.04 474.67 68.04 475.73 73.9 475.73 71.75 477.88 72.5 478.62 75.17 475.95 75.92 475.21 75.17 474.46"/>
  <polygon class="cls-1" points="4.45 545.89 1.78 548.57 2.52 549.32 4.67 547.17 4.67 553.02 5.72 553.02 5.72 547.16 7.88 549.32 8.61 548.57 5.95 545.89 5.2 545.14 4.45 545.89"/>
</svg>