<?xml version="1.0" encoding="UTF-8"?>
<svg id="Livello_1" data-name="Livello 1" xmlns="http://www.w3.org/2000/svg" viewBox="0 0 381.3 393.65">
  <path d="M332.44,144.78H35.12l10.54,18.27H0v86.93h95.86l5.01,8.7h-24.37v65.93h62.45l39.86,69.04v-73.08l-40.76-70.59h91.46l-40.74,70.56v73.08l82.93-143.64h95.88v-86.93h-45.67l10.54-18.27ZM34.22,235.95H12.59v-58.97h21.63c16.26,0,29.49,13.23,29.49,29.49s-13.23,29.49-29.49,29.49ZM81.63,224.22l-.27.66v.02l-4.44,11.05h-12.66l9.61-24.04,13.96-34.93h11.75l1.74,4.35,6.58,16.39.07.15,15.27,38.09h-12.75l-4.71-11.73h-24.13ZM125.08,280.56l-7.33,7.33-12.99,12.97h20.32v6.39h-31.22v-31.22h6.39v20.32l14.18-14.2,6.12-6.12h4.53v4.53ZM180.64,235.95h-11.82l-27.55-38.64v38.64h-11.33l-.42-.75v-58.23h11.75l3.11,4.35,24.44,34.29v-38.64h11.82v58.97ZM242.02,235.95h-11.84v-.91c-3.33,1.19-6.83,1.94-10.63,1.94-16.81,0-30.4-13.68-30.4-30.51,0-10.47,5.26-19.68,13.28-25.14,4.88-3.33,10.76-5.26,17.12-5.26s12.37,1.9,17.23,5.26c1.55,1.04,3,2.27,4.31,3.6l-8.31,8.33c-3.33-3.34-8.04-5.46-13.23-5.46-10.25,0-18.67,8.42-18.67,18.67s8.42,18.67,18.67,18.67c3.98,0,7.67-1.21,10.63-3.33v-13.41h11.84v27.55ZM294.34,188.81h-31.53v11.73h23.68v11.84h-23.68v11.84h31.53v11.73h-43.26v-58.97h43.26v11.84ZM333.35,176.97c11.93,0,21.63,9.7,21.63,21.63,0,9.06-5.55,16.83-13.5,20.06l13.23,17.28h-14.89l-11.93-15.71h-12.28v15.71h-11.75v-58.97h29.49Z"/>
  <path d="M343.14,198.6c0-5.44-4.44-9.79-9.79-9.79h-17.74v19.59h17.74c5.35,0,9.79-4.33,9.79-9.79Z"/>
  <path d="M34.22,188.81h-9.81v35.32h9.81c9.79,0,17.65-7.86,17.65-17.67s-7.86-17.65-17.65-17.65Z"/>
  <polygon points="86.35 212.38 101.05 212.38 93.65 193.98 86.35 212.38"/>
  <path d="M257.34,309.92c1.29,0,2.45.53,3.28,1.36l2.1-2.08c-1.39-1.38-3.28-2.22-5.38-2.22-4.2,0-7.62,3.39-7.62,7.6s3.42,7.62,7.62,7.62c2.1,0,3.99-.85,5.38-2.24l-2.08-2.08c-.85.83-2.01,1.36-3.3,1.36-2.56,0-4.66-2.1-4.66-4.66s2.1-4.66,4.66-4.66Z"/>
  <polygon points="271.93 312.3 267.69 307.22 263.85 307.22 270.46 315.12 270.46 321.95 273.41 321.95 273.41 315.12 280.03 307.22 276.2 307.22 271.93 312.3"/>
  <path d="M290.08,312.86c.23-.53.39-1.08.39-1.71,0-2.17-1.78-3.92-3.95-3.92h-4.89v14.73h5.89c2.7,0,4.92-2.19,4.92-4.92,0-1.78-.95-3.32-2.35-4.18ZM284.57,310.18h1.96c.55,0,.99.44.99.97s-.44.99-.99.99h-1.96v-1.96ZM287.52,319h-2.95v-3.92h2.95c1.08,0,1.96.88,1.96,1.96s-.88,1.96-1.96,1.96Z"/>
  <polygon points="294.47 307.22 294.47 310.18 294.47 319.02 294.47 321.95 297.41 321.95 305.28 321.95 305.28 319.02 297.41 319.02 297.41 316.06 303.32 316.06 303.32 313.11 297.41 313.11 297.41 310.18 305.28 310.18 305.28 307.22 297.41 307.22 294.47 307.22"/>
  <path d="M320.43,312.62c0-2.98-2.42-5.4-5.4-5.4h-7.36v14.73h2.93v-3.92h3.07l2.98,3.92h3.72l-3.3-4.32c1.98-.81,3.37-2.75,3.37-5.01ZM315.02,315.07h-4.43v-4.89h4.43c1.34,0,2.45,1.08,2.45,2.45s-1.11,2.45-2.45,2.45Z"/>
  <path d="M329.94,307.22h-7.36v14.73h2.95v-3.92h4.41c2.98,0,5.4-2.42,5.4-5.4s-2.42-5.4-5.4-5.4ZM329.94,315.07h-4.41v-4.89h4.41c1.36,0,2.45,1.08,2.45,2.45s-1.08,2.45-2.45,2.45Z"/>
  <path d="M347.63,315.58c0,2.03-1.66,3.67-3.69,3.67s-3.69-1.64-3.69-3.67v-8.36h-2.93v8.36c0,3.65,2.95,6.62,6.62,6.62s6.62-2.98,6.62-6.62v-8.36h-2.93v8.36Z"/>
  <polygon points="362.99 316.87 356.11 307.22 353.18 307.22 353.18 321.95 356.11 321.95 356.11 312.3 362.99 321.95 365.94 321.95 365.94 307.22 362.99 307.22 362.99 316.87"/>
  <polygon points="381.3 307.22 377.3 307.22 371.49 313.64 371.49 307.22 368.53 307.22 368.53 321.95 371.49 321.95 371.49 318.03 372.89 316.46 377.46 321.95 381.3 321.95 374.88 314.26 381.3 307.22"/>
  <path d="M0,324.61h65.93v-65.93H0v65.93ZM7.31,265.99h51.31v51.31H7.31v-51.31Z"/>
  <path d="M29.62,122.19l92.7-.2c14.75-.98,25.18-12.22,25.23-25.7l.25-68.67C147.85,12.5,136.02-.01,120.45,0L26.97.08C9.32.1-.02,14.46,0,30.2l.09,62.75c.03,18.49,11.4,29.28,29.53,29.24ZM126.9,21.49c.31,30.35,1.37,52.01-1.96,80.94L42.86,21.46l84.04.03ZM21.56,22.35l79.18,78.27-79.41.72.23-78.99Z"/>
  <path d="M229.5,121.85l20.08-1.07.14-93.54c.02-14.77-12.21-27.03-27.16-27.04l-52.22-.06-.02,20.53,58.52,1.12.65,100.06Z"/>
  <path d="M315.18,56.14h8.64c2,0,3.61-1.62,3.61-3.61v-16.59c0-3.22,3.89-4.83,6.17-2.55l21.7,21.7c.68.68,1.6,1.06,2.55,1.06h6.11c2,0,3.61-1.62,3.61-3.61v-6.11c0-.96-.38-1.88-1.06-2.55l-21.7-21.7c-2.28-2.28-.66-6.17,2.55-6.17h16.59c2,0,3.61-1.62,3.61-3.61V3.75c0-2-1.62-3.61-3.61-3.61h-48.78c-2,0-3.61,1.62-3.61,3.61v48.78c0,2,1.62,3.61,3.61,3.61Z"/>
  <path d="M315.18,121.85h48.78c2,0,3.61-1.62,3.61-3.61v-48.78c0-2-1.62-3.61-3.61-3.61h-8.64c-2,0-3.61,1.62-3.61,3.61v16.59c0,3.22-3.89,4.83-6.17,2.55l-21.7-21.7c-.68-.68-1.6-1.06-2.55-1.06h-6.11c-2,0-3.61,1.62-3.61,3.61v6.11c0,.96.38,1.88,1.06,2.55l21.7,21.7c2.28,2.28.66,6.17-2.55,6.17h-16.59c-2,0-3.61,1.62-3.61,3.61v8.64c0,2,1.62,3.61,3.61,3.61Z"/>
</svg>