<?xml version="1.0" encoding="UTF-8"?>
<svg id="Livello_1" data-name="Livello 1" xmlns="http://www.w3.org/2000/svg" viewBox="0 0 320.26 476">
  <defs>
    <style>
      .cls-1 {
        fill: #fff;
      }

      .cls-2 {
        fill: #fff800;
      }
    </style>
  </defs>
  <polygon class="cls-1" points="146.83 51.63 137.81 42.61 135.29 45.13 142.52 52.36 122.79 52.36 122.79 55.91 142.55 55.91 135.29 63.17 137.81 65.66 146.83 56.67 149.35 54.15 146.83 51.63"/>
  <polygon class="cls-1" points="70.02 51.63 61 42.61 58.48 45.13 65.71 52.36 45.98 52.36 45.98 55.91 65.75 55.91 58.48 63.17 61 65.66 70.02 56.67 72.54 54.15 70.02 51.63"/>
  <g>
    <g>
      <path class="cls-1" d="M3.9,471.2h-1.21v-3.01h1.21v.25h-.94v2.51h.94v.25Z"/>
      <path class="cls-1" d="M10.82,470.67l-.57.53h-1.62v-.25h.46v-2.51h-.46v-.25h1.62l.57.54v1.94ZM10.55,470.57v-1.74l-.41-.39h-.79v2.51h.79l.41-.38Z"/>
      <path class="cls-1" d="M13.78,471.17h-.26v-.89h-1.69v.89h-.26v-1.04l1.01-1.91h.2l1.01,1.91v1.04ZM13.43,470.03l-.76-1.44-.76,1.44h1.53Z"/>
      <path class="cls-1" d="M16.73,471.18h-.26v-2.35l-.84,1.61-.85-1.61v2.35h-.26v-2.98h.23l.88,1.67.88-1.67h.23v2.98Z"/>
      <path class="cls-1" d="M19.69,471.17h-.26v-.89h-1.69v.89h-.26v-1.04l1.01-1.91h.2l1.01,1.91v1.04ZM19.34,470.03l-.76-1.44-.76,1.44h1.53Z"/>
      <path class="cls-1" d="M22.65,471.2h-1.65l-.57-.53v-1.94l.57-.54h1.62v.25h-1.51l-.41.39v1.74l.41.38h1.28v-1.13h-.46v-.25h.72v1.63Z"/>
      <path class="cls-1" d="M25.57,471.2h-2.19v-3.01h2.19v.25h-1.92v1.13h.94v.25h-.94v1.13h1.92v.25Z"/>
      <path class="cls-1" d="M30.54,471.2h-1.21v-.25h.94v-2.51h-.94v-.25h1.21v3.01Z"/>
    </g>
    <g>
      <path class="cls-1" d="M44.1,471.16h-1.18v-.25h.46v-2.33l-.33.32-.19-.18.6-.56h.18v2.76h.46v.25Z"/>
      <path class="cls-1" d="M47.08,470.63l-.57.53h-.59l-.57-.53v-1.94l.57-.54h.59l.57.54v1.94ZM46.81,470.52v-1.74l-.41-.39h-.38l-.41.39v1.74l.41.38h.39l.41-.38Z"/>
    </g>
    <g>
      <path class="cls-1" d="M64.34,471.16h-1.18v-.25h.46v-2.33l-.33.32-.19-.18.6-.56h.18v2.76h.46v.25Z"/>
      <path class="cls-1" d="M67.32,470.63l-.57.53h-.59l-.57-.53v-1.94l.57-.54h.59l.57.54v1.94ZM67.06,470.52v-1.74l-.41-.39h-.38l-.41.39v1.74l.41.38h.39l.41-.38Z"/>
    </g>
    <g>
      <path class="cls-1" d="M54.01,471.16h-1.18v-.25h.46v-2.33l-.33.32-.19-.18.6-.56h.18v2.76h.46v.25Z"/>
      <path class="cls-1" d="M56.99,470.63l-.57.53h-.59l-.57-.53v-1.94l.57-.54h.59l.57.54v1.94ZM56.72,470.52v-1.74l-.41-.39h-.38l-.41.39v1.74l.41.38h.39l.41-.38Z"/>
    </g>
    <g>
      <path class="cls-1" d="M159.61,468.3l-2.07,2.92-.23-.12,2.07-2.92.23.12Z"/>
      <path class="cls-1" d="M162.57,468.3l-2.07,2.92-.23-.12,2.07-2.92.23.12Z"/>
    </g>
    <g>
      <path class="cls-1" d="M212.79,469.82h-.94v.89h-.26v-.89h-.94v-.25h.94v-.89h.26v.89h.94v.25Z"/>
      <path class="cls-1" d="M215.29,470.67l-.57.53h-.59l-.57-.53v-1.94l.57-.54h.59l.57.54v1.94ZM215.02,470.57v-1.74l-.41-.39h-.38l-.41.39v1.74l.41.38h.39l.41-.38Z"/>
    </g>
    <g>
      <path class="cls-1" d="M192.5,438.28h-1.21v-3.01h1.21v.25h-.94v2.51h.94v.25Z"/>
      <path class="cls-1" d="M199.43,437.75l-.57.53h-1.62v-.25h.46v-2.51h-.46v-.25h1.62l.57.54v1.94ZM199.16,437.65v-1.74l-.41-.39h-.79v2.51h.79l.41-.38Z"/>
      <path class="cls-1" d="M204.36,438.28h-1.21v-.25h.94v-2.51h-.94v-.25h1.21v3.01Z"/>
    </g>
    <g>
      <path class="cls-1" d="M103.57,445.33h-1.21v-3.01h1.21v.25h-.94v2.51h.94v.25Z"/>
      <path class="cls-1" d="M110.49,445.3h-.26v-1.35h-1.69v1.35h-.26v-2.95h.26v1.35h1.69v-1.35h.26v2.95Z"/>
      <path class="cls-1" d="M115.43,445.33h-1.21v-.25h.94v-2.51h-.94v-.25h1.21v3.01Z"/>
    </g>
    <g>
      <path class="cls-1" d="M221.88,366.29h-1.21v-3.01h1.21v.25h-.94v2.51h.94v.25Z"/>
      <path class="cls-1" d="M228.8,365.76l-.57.53h-1.62v-.25h.46v-2.51h-.46v-.25h1.62l.57.54v.56l-.44.41.44.41v.56ZM228.54,364.27v-.36l-.41-.39h-.79v1.13h.79l.41-.39ZM228.54,365.66v-.36l-.41-.39h-.79v1.13h.79l.41-.38Z"/>
      <path class="cls-1" d="M233.74,366.29h-1.21v-.25h.94v-2.51h-.94v-.25h1.21v3.01Z"/>
    </g>
    <g>
      <path class="cls-1" d="M277.5,455.51h-1.21v-3.01h1.21v.25h-.94v2.51h.94v.25Z"/>
      <path class="cls-1" d="M284.45,454.95l-.6.56h-1.08l-.57-.53v-1.94l.57-.54h1.08l.6.56-.19.18-.52-.49h-.87l-.41.39v1.74l.41.38h.87l.52-.49.19.18Z"/>
      <path class="cls-1" d="M289.36,455.51h-1.21v-.25h.94v-2.51h-.94v-.25h1.21v3.01Z"/>
    </g>
    <g>
      <path class="cls-1" d="M119.94,366.29h-1.21v-3.01h1.21v.25h-.94v2.51h.94v.25Z"/>
      <path class="cls-1" d="M126.87,366.26h-.26v-.89h-1.69v.89h-.26v-1.04l1.01-1.91h.2l1.01,1.91v1.04ZM126.52,365.12l-.76-1.44-.76,1.44h1.53Z"/>
      <path class="cls-1" d="M131.8,366.29h-1.21v-.25h.94v-2.51h-.94v-.25h1.21v3.01Z"/>
    </g>
    <g>
      <path class="cls-1" d="M39.21,366.29h-1.21v-3.01h1.21v.25h-.94v2.51h.94v.25Z"/>
      <path class="cls-1" d="M46.13,366.29h-1.65l-.57-.53v-1.94l.57-.54h1.62v.25h-1.51l-.41.39v1.74l.41.38h1.28v-1.13h-.46v-.25h.72v1.63Z"/>
      <path class="cls-1" d="M51.07,366.29h-1.21v-.25h.94v-2.51h-.94v-.25h1.21v3.01Z"/>
    </g>
    <path class="cls-2" d="M320.04,416.05h-4.84l-12.63,12.63h-41.81l-22.11,22.11h63.54l17.61-17.61s.09-17.13.24-17.13Z"/>
    <path class="cls-2" d="M293.43,399.72h-29.48l-22.19,22.19v17.27h4.5l18.26-18.26h7.6s21.55-21.43,21.32-21.21Z"/>
    <path class="cls-2" d="M265.31,368.42h-63.51l-17.01,17.01v11.57h-19.43l-20.31,20.31h-50l-16.31,16.31v17.52h4.06l11.72-11.72h24.72l11-11h4.27l-5.31,5.31v17.41h4.71l43.17-43.17h7.03l17.8-17.8h42.37s21.32-22.04,21.02-21.74Z"/>
    <polygon class="cls-2" points="161.69 379.95 161.69 396.73 144.71 413.72 80.95 413.72 97.21 397.46 139.47 397.46 156.84 380.09 161.69 379.95"/>
    <path class="cls-2" d="M164.41,368.42h-63.96l-16.82,16.82v17.39h4.35l12.93-12.93h41.73s21.96-21.1,21.77-21.28Z"/>
    <path class="cls-2" d="M268.4,374.28h-4.99l-29.65,29.65h-7.2l-7.23,7.23h-41.42l-16.79,16.79v17.31h4.77l12.7-12.7h41.62l12.59-12.59h6.69l28.69-28.69s.45-17.01.23-17.01Z"/>
    <path class="cls-2" d="M239.26,422.48v17.58l-16.61,16.61h-64.24l16.3-16.3h41.99l17.9-17.9s4.66-.21,4.66.01Z"/>
    <path class="cls-2" d="M83.63,368.42H19.94l-17.06,17.06v17.15h4.81l12.64-12.64h41.79s21.19-21.25,21.51-21.57Z"/>
    <path class="cls-2" d="M80.95,379.95h-5.44l-12.47,12.47H21.41L.22,413.62h63.38l17.07-17.07s.11-16.77.28-16.6Z"/>
    <path class="cls-1" d="M193.59,370.62h-23.61v-1.76h23.61v1.76M194.03,371.07v-2.65h-24.49v2.65h24.49Z"/>
    <path class="cls-1" d="M307.05,370.62h-38.41v-1.76h38.41v1.76M307.49,371.07v-2.65h-39.29v2.65h39.29Z"/>
    <path class="cls-1" d="M307.05,376.05h-35.57v-1.76h35.57v1.76M307.49,376.49v-2.65h-36.46v2.65h36.46Z"/>
    <path class="cls-1" d="M319.6,381.66h-47.82v-1.76h47.82v1.76M320.04,382.11v-2.65h-48.71v2.65h48.71Z"/>
    <path class="cls-1" d="M63.1,419.13H.67v-1.76h62.44v1.76M63.55,419.58v-2.65H.22v2.65h63.33Z"/>
    <path class="cls-1" d="M63.1,424.75H.67v-1.76h62.44v1.76M63.55,425.19v-2.65H.22v2.65h63.33Z"/>
    <path class="cls-1" d="M63.1,430.36H.67v-1.76h62.44v1.76M63.55,430.81v-2.65H.22v2.65h63.33Z"/>
    <path class="cls-1" d="M11.62,440.43H.67v-1.76h10.95v1.76M12.06,440.87v-2.65H.22v2.65h11.84Z"/>
    <path class="cls-1" d="M11.62,450.49H.67v-1.76h10.95v1.76M12.06,450.93v-2.65H.22v2.65h11.84Z"/>
    <rect class="cls-1" x="7.23" y="455.21" width="1.37" height="15.39" transform="translate(470.83 454.99) rotate(90)"/>
    <path class="cls-1" d="M63.1,456.1H.67v-1.76h62.44v1.76M63.55,456.55v-2.65H.22v2.65h63.33Z"/>
    <path class="cls-1" d="M99.54,456.1h-20.35v-1.76h20.35v1.76M99.98,456.55v-2.65h-21.24v2.65h21.24Z"/>
    <path class="cls-1" d="M319.6,387.28h-11.36v-1.76h11.36v1.76M320.04,387.72v-2.65h-12.25v2.65h12.25Z"/>
    <path class="cls-1" d="M319.6,397.25h-11.36v-1.76h11.36v1.76M320.04,397.69v-2.65h-12.25v2.65h12.25Z"/>
    <path class="cls-1" d="M319.6,412.64h-11.36v-1.76h11.36v1.76M320.04,413.09v-2.65h-12.25v2.65h12.25Z"/>
    <path class="cls-1" d="M319.6,408.42h-11.36v-8.72h11.36v8.72M320.04,408.87v-9.61h-12.25v9.61h12.25Z"/>
    <rect class="cls-1" x="317.7" y="367.4" width="1.32" height="3.36" transform="translate(687.44 50.72) rotate(90)"/>
    <rect class="cls-1" x="1.24" y="362.26" width="1.32" height="3.36" transform="translate(365.85 362.04) rotate(90)"/>
    <rect class="cls-1" x="1.24" y="365.78" width="1.32" height="3.36" transform="translate(369.36 365.56) rotate(90)"/>
    <rect class="cls-1" x="189.53" y="468.08" width="1.32" height="3.36" transform="translate(659.95 279.57) rotate(90)"/>
    <rect class="cls-1" x="317.7" y="461.26" width="1.32" height="3.36" transform="translate(781.3 144.58) rotate(90)"/>
    <rect class="cls-1" x="317.7" y="452.52" width="1.32" height="3.36" transform="translate(772.56 135.85) rotate(90)"/>
    <rect class="cls-1" x="230.5" y="458.99" width="1.32" height="7.8" transform="translate(694.05 231.72) rotate(90)"/>
    <g>
      <path class="cls-1" d="M318.49,475.78c0-.06.02-.11.07-.16l1.33-1.33c.09-.09.23-.09.31,0s.09.23,0,.31l-1.33,1.33c-.09.09-.23.09-.31,0-.04-.04-.07-.1-.07-.16Z"/>
      <path class="cls-1" d="M313.39,475.61c0-.06.02-.11.07-.16l6.43-6.43c.09-.09.23-.09.31,0s.09.23,0,.31l-6.43,6.43c-.09.09-.23.09-.31,0-.04-.04-.07-.1-.07-.16Z"/>
      <path class="cls-1" d="M227.73,470.42c0-.06.02-.11.07-.16l1.33-1.33c.09-.09.23-.09.31,0s.09.23,0,.31l-1.33,1.33c-.09.09-.23.09-.31,0-.04-.04-.07-.1-.07-.16Z"/>
      <path class="cls-1" d="M227.73,475.7c0-.06.02-.11.07-.16l6.43-6.43c.09-.09.23-.09.31,0s.09.23,0,.31l-6.43,6.43c-.09.09-.23.09-.31,0-.04-.04-.07-.1-.07-.16Z"/>
      <path class="cls-1" d="M308.71,475.61c0-.06.02-.11.07-.16l6.43-6.43c.09-.09.23-.09.31,0s.09.23,0,.31l-6.43,6.43c-.09.09-.23.09-.31,0-.04-.04-.07-.1-.07-.16Z"/>
      <path class="cls-1" d="M303.96,475.61c0-.06.02-.11.07-.16l6.43-6.43c.09-.09.23-.09.31,0s.09.23,0,.31l-6.43,6.43c-.09.09-.23.09-.31,0-.04-.04-.07-.1-.07-.16Z"/>
      <path class="cls-1" d="M298.93,475.61c0-.06.02-.11.07-.16l6.43-6.43c.09-.09.23-.09.31,0s.09.23,0,.31l-6.43,6.43c-.09.09-.23.09-.31,0-.04-.04-.07-.1-.07-.16Z"/>
      <path class="cls-1" d="M294.26,475.61c0-.06.02-.11.07-.16l6.43-6.43c.09-.09.23-.09.31,0s.09.23,0,.31l-6.43,6.43c-.09.09-.23.09-.31,0-.04-.04-.07-.1-.07-.16Z"/>
      <path class="cls-1" d="M289.51,475.61c0-.06.02-.11.07-.16l6.43-6.43c.09-.09.23-.09.31,0s.09.23,0,.31l-6.43,6.43c-.09.09-.23.09-.31,0-.04-.04-.07-.1-.07-.16Z"/>
      <path class="cls-1" d="M284.55,475.61c0-.06.02-.11.07-.16l6.43-6.43c.09-.09.23-.09.31,0s.09.23,0,.31l-6.43,6.43c-.09.09-.23.09-.31,0-.04-.04-.07-.1-.07-.16Z"/>
      <path class="cls-1" d="M279.87,475.61c0-.06.02-.11.07-.16l6.43-6.43c.09-.09.23-.09.31,0s.09.23,0,.31l-6.43,6.43c-.09.09-.23.09-.31,0-.04-.04-.07-.1-.07-.16Z"/>
      <path class="cls-1" d="M275.13,475.61c0-.06.02-.11.07-.16l6.43-6.43c.09-.09.23-.09.31,0s.09.23,0,.31l-6.43,6.43c-.09.09-.23.09-.31,0-.04-.04-.07-.1-.07-.16Z"/>
      <path class="cls-1" d="M270.24,475.61c0-.06.02-.11.07-.16l6.43-6.43c.09-.09.23-.09.31,0s.09.23,0,.31l-6.43,6.43c-.09.09-.23.09-.31,0-.04-.04-.07-.1-.07-.16Z"/>
      <path class="cls-1" d="M265.56,475.61c0-.06.02-.11.07-.16l6.43-6.43c.09-.09.23-.09.31,0s.09.23,0,.31l-6.43,6.43c-.09.09-.23.09-.31,0-.04-.04-.07-.1-.07-.16Z"/>
      <path class="cls-1" d="M260.82,475.61c0-.06.02-.11.07-.16l6.43-6.43c.09-.09.23-.09.31,0s.09.23,0,.31l-6.43,6.43c-.09.09-.23.09-.31,0-.04-.04-.07-.1-.07-.16Z"/>
      <path class="cls-1" d="M255.79,475.61c0-.06.02-.11.07-.16l6.43-6.43c.09-.09.23-.09.31,0s.09.23,0,.31l-6.43,6.43c-.09.09-.23.09-.31,0-.04-.04-.07-.1-.07-.16Z"/>
      <path class="cls-1" d="M251.11,475.61c0-.06.02-.11.07-.16l6.43-6.43c.09-.09.23-.09.31,0s.09.23,0,.31l-6.43,6.43c-.09.09-.23.09-.31,0-.04-.04-.07-.1-.07-.16Z"/>
      <path class="cls-1" d="M246.36,475.61c0-.06.02-.11.07-.16l6.43-6.43c.09-.09.23-.09.31,0s.09.23,0,.31l-6.43,6.43c-.09.09-.23.09-.31,0-.04-.04-.07-.1-.07-.16Z"/>
      <path class="cls-1" d="M241.4,475.61c0-.06.02-.11.07-.16l6.43-6.43c.09-.09.23-.09.31,0s.09.23,0,.31l-6.43,6.43c-.09.09-.23.09-.31,0-.04-.04-.07-.1-.07-.16Z"/>
      <path class="cls-1" d="M236.73,475.61c0-.06.02-.11.07-.16l6.43-6.43c.09-.09.23-.09.31,0s.09.23,0,.31l-6.43,6.43c-.09.09-.23.09-.31,0-.04-.04-.07-.1-.07-.16Z"/>
      <path class="cls-1" d="M231.98,475.61c0-.06.02-.11.07-.16l6.43-6.43c.09-.09.23-.09.31,0s.09.23,0,.31l-6.43,6.43c-.09.09-.23.09-.31,0-.04-.04-.07-.1-.07-.16Z"/>
    </g>
    <polygon class="cls-1" points="0 475.78 0 462 221.72 462 221.72 475.78 221.28 475.78 221.28 462.44 .44 462.44 .44 475.78 0 475.78"/>
    <polygon class="cls-1" points="287.63 392.83 288.76 391.7 288.44 391.39 287.54 392.29 287.54 389.83 287.09 389.83 287.09 392.3 286.18 391.39 285.87 391.7 287 392.83 287.31 393.15 287.63 392.83"/>
    <polygon class="cls-1" points="214 399.51 212.4 399.51 212.4 399.96 213.68 399.96 211.93 401.7 212.25 402.01 214 400.27 214 401.55 214.44 401.55 214.44 399.96 214.44 399.51 214 399.51"/>
    <polygon class="cls-1" points="152.82 443.72 151.69 442.59 151.38 442.91 152.28 443.81 149.81 443.81 149.81 444.25 152.29 444.25 151.38 445.16 151.69 445.47 152.82 444.35 153.14 444.03 152.82 443.72"/>
    <polygon class="cls-1" points="61.22 469.54 60.1 468.41 59.78 468.73 60.68 469.63 58.22 469.63 58.22 470.08 60.69 470.08 59.78 470.99 60.1 471.3 61.22 470.17 61.54 469.86 61.22 469.54"/>
    <polygon class="cls-1" points="51.62 469.54 50.49 468.41 50.17 468.73 51.08 469.63 48.61 469.63 48.61 470.08 51.08 470.08 50.17 470.99 50.49 471.3 51.62 470.17 51.93 469.86 51.62 469.54"/>
    <polygon class="cls-1" points="120.19 394.98 121.32 393.85 121.01 393.54 120.1 394.44 120.1 391.97 119.66 391.97 119.66 394.45 118.75 393.54 118.44 393.85 119.56 394.98 119.88 395.3 120.19 394.98"/>
    <polygon class="cls-1" points="90.07 365.16 88.94 364.03 88.63 364.35 89.53 365.25 87.06 365.25 87.06 365.69 89.54 365.69 88.63 366.6 88.94 366.91 90.07 365.79 90.39 365.48 90.07 365.16"/>
  </g>
  <g>
    <path class="cls-1" d="M11.35,21.62H2.66V0h8.69v1.8h-6.79v18.03h6.79v1.79Z"/>
    <path class="cls-1" d="M61.13,17.8l-4.09,3.82h-11.64v-1.79h3.29V1.8h-3.29V0h11.64l4.09,3.85v13.95ZM59.23,17.07V4.58l-2.95-2.77h-5.7v18.03h5.7l2.95-2.76Z"/>
    <path class="cls-1" d="M82.39,21.42h-1.9v-6.39h-12.15v6.39h-1.9v-7.51L73.7.21h1.43l7.26,13.7v7.51ZM79.91,13.22l-5.49-10.32-5.49,10.32h10.98Z"/>
    <path class="cls-1" d="M103.65,21.49h-1.9V4.6l-6.08,11.55-6.08-11.55v16.88h-1.9V.09h1.66l6.32,12.02L101.99.09h1.66v21.4Z"/>
    <path class="cls-1" d="M124.91,21.42h-1.9v-6.39h-12.15v6.39h-1.9v-7.51L116.22.21h1.43l7.26,13.7v7.51ZM122.42,13.22l-5.49-10.32-5.49,10.32h10.98Z"/>
    <path class="cls-1" d="M146.17,21.62h-11.87l-4.09-3.82V3.85l4.09-3.85h11.62v1.8h-10.87l-2.95,2.77v12.5l2.93,2.76h9.22v-8.11h-3.29v-1.8h5.19v11.7Z"/>
    <path class="cls-1" d="M167.19,21.62h-15.71V0h15.71v1.8h-13.81v8.12h6.79v1.8h-6.79v8.11h13.81v1.79Z"/>
    <path class="cls-1" d="M202.92,21.62h-8.69v-1.79h6.79V1.8h-6.79V0h8.69v21.62Z"/>
  </g>
  <g>
    <path class="cls-1" d="M18.37,259h-6.79v6.39h-1.9v-6.39H2.89v-1.8h6.79v-6.39h1.9v6.39h6.79v1.8Z"/>
    <path class="cls-1" d="M36.36,265.07l-4.09,3.82h-4.26l-4.09-3.82v-13.95l4.09-3.85h4.26l4.09,3.85v13.95ZM34.45,264.34v-12.5l-2.95-2.77h-2.74l-2.95,2.77v12.5l2.93,2.76h2.77l2.93-2.76Z"/>
  </g>
  <g>
    <path class="cls-1" d="M15.1,62.28l-4.09,3.82h-4.26l-4.09-3.82v-13.95l4.09-3.85h4.26l4.09,3.85v13.95ZM13.2,61.55v-12.5l-2.95-2.77h-2.74l-2.95,2.77v12.5l2.93,2.76h2.77l2.93-2.76Z"/>
    <path class="cls-1" d="M36.21,66.1h-8.46v-1.79h3.29v-16.77l-2.4,2.27-1.36-1.29,4.32-4.05h1.33v19.83h3.29v1.79Z"/>
  </g>
  <g>
    <path class="cls-1" d="M92.98,62.28l-4.09,3.82h-4.26l-4.09-3.82v-13.95l4.09-3.85h4.26l4.09,3.85v13.95ZM91.07,61.55v-12.5l-2.95-2.77h-2.74l-2.95,2.77v12.5l2.93,2.76h2.77l2.93-2.76Z"/>
    <path class="cls-1" d="M114.09,66.1h-8.46v-1.79h3.29v-16.77l-2.4,2.27-1.36-1.29,4.32-4.05h1.33v19.83h3.29v1.79Z"/>
  </g>
  <g>
    <path class="cls-1" d="M174.27,62.28l-4.09,3.82h-4.26l-4.09-3.82v-13.95l4.09-3.85h4.26l4.09,3.85v13.95ZM172.37,61.55v-12.5l-2.95-2.77h-2.74l-2.95,2.77v12.5l2.93,2.76h2.77l2.93-2.76Z"/>
    <path class="cls-1" d="M195.39,66.1h-8.46v-1.79h3.29v-16.77l-2.4,2.27-1.36-1.29,4.32-4.05h1.33v19.83h3.29v1.79Z"/>
  </g>
  <g>
    <path class="cls-1" d="M18.61,306.77H6.75l-4.09-3.82v-13.95l4.09-3.85h11.62v1.8H7.51l-2.95,2.77v12.5l2.93,2.76h9.22v-8.11h-3.29v-1.8h5.19v11.7Z"/>
    <path class="cls-1" d="M39.87,306.57h-1.9v-6.39h-12.15v6.39h-1.9v-7.51l7.26-13.7h1.43l7.26,13.7v7.51ZM37.39,298.38l-5.49-10.32-5.49,10.32h10.98Z"/>
    <path class="cls-1" d="M61.13,306.64h-1.9v-16.88l-6.08,11.55-6.08-11.55v16.88h-1.9v-21.4h1.66l6.32,12.02,6.32-12.02h1.66v21.4Z"/>
    <path class="cls-1" d="M82.39,306.64h-1.9v-16.88l-6.08,11.55-6.08-11.55v16.88h-1.9v-21.4h1.66l6.32,12.02,6.32-12.02h1.66v21.4Z"/>
    <path class="cls-1" d="M103.65,306.57h-1.9v-6.39h-12.15v6.39h-1.9v-7.51l7.26-13.7h1.43l7.26,13.7v7.51ZM101.17,298.38l-5.49-10.32-5.49,10.32h10.98Z"/>
  </g>
  <g>
    <path class="cls-1" d="M18.9,122.53l-14.88,20.96-1.64-.87,14.86-20.96,1.67.87Z"/>
    <path class="cls-1" d="M40.16,122.53l-14.88,20.96-1.64-.87,14.86-20.96,1.67.87Z"/>
  </g>
</svg>