<?xml version="1.0" encoding="UTF-8"?>
<svg id="Livello_1" xmlns="http://www.w3.org/2000/svg" version="1.1" viewBox="0 0 1920 1080">
  <!-- Generator: Adobe Illustrator 30.3.0, SVG Export Plug-In . SVG Version: 2.1.3 Build 182)  -->
  <defs>
    <style>
      .st0 {
        fill: #fff;
      }

      .st1 {
        fill: #fff800;
      }
    </style>
  </defs>
  <path class="st0" d="M112.02,819.83h-6.56v-16.32h6.56v1.36h-5.13v13.61h5.13v1.35Z"/>
  <path class="st0" d="M149.6,816.95l-3.09,2.88h-8.79v-1.35h2.48v-13.61h-2.48v-1.36h8.79l3.09,2.91v10.53ZM148.17,816.4v-9.43l-2.22-2.1h-4.31v13.61h4.31l2.22-2.08Z"/>
  <path class="st0" d="M165.65,819.68h-1.44v-4.82h-9.17v4.82h-1.43v-5.67l5.48-10.34h1.08l5.48,10.34v5.67ZM163.77,813.5l-4.14-7.79-4.15,7.79h8.29Z"/>
  <path class="st0" d="M181.7,819.74h-1.44v-12.75l-4.59,8.72-4.59-8.72v12.75h-1.43v-16.16h1.25l4.77,9.08,4.77-9.08h1.25v16.16Z"/>
  <path class="st0" d="M197.75,819.68h-1.44v-4.82h-9.17v4.82h-1.43v-5.67l5.48-10.34h1.08l5.48,10.34v5.67ZM195.87,813.5l-4.14-7.79-4.15,7.79h8.29Z"/>
  <path class="st0" d="M213.8,819.83h-8.96l-3.09-2.88v-10.53l3.09-2.91h8.77v1.36h-8.2l-2.22,2.1v9.43l2.21,2.08h6.96v-6.12h-2.48v-1.36h3.92v8.83Z"/>
  <path class="st0" d="M229.66,819.83h-11.86v-16.32h11.86v1.36h-10.43v6.13h5.13v1.36h-5.13v6.12h10.43v1.35Z"/>
  <path class="st0" d="M256.63,819.83h-6.56v-1.35h5.13v-13.61h-5.13v-1.36h6.56v16.32Z"/>
  <path class="st0" d="M330.24,819.59h-6.39v-1.35h2.48v-12.66l-1.81,1.71-1.03-.97,3.26-3.06h1v14.97h2.48v1.35Z"/>
  <path class="st0" d="M346.4,816.71l-3.09,2.88h-3.22l-3.09-2.88v-10.53l3.09-2.91h3.22l3.09,2.91v10.53ZM344.96,816.16v-9.43l-2.22-2.1h-2.07l-2.22,2.1v9.43l2.21,2.08h2.1l2.21-2.08Z"/>
  <path class="st0" d="M440.11,819.59h-6.39v-1.35h2.48v-12.66l-1.81,1.71-1.03-.97,3.26-3.06h1v14.97h2.48v1.35Z"/>
  <path class="st0" d="M456.26,816.71l-3.09,2.88h-3.22l-3.09-2.88v-10.53l3.09-2.91h3.22l3.09,2.91v10.53ZM454.83,816.16v-9.43l-2.22-2.1h-2.07l-2.22,2.1v9.43l2.21,2.08h2.1l2.21-2.08Z"/>
  <path class="st0" d="M384.03,819.59h-6.39v-1.35h2.48v-12.66l-1.81,1.71-1.03-.97,3.26-3.06h1v14.97h2.48v1.35Z"/>
  <path class="st0" d="M400.19,816.71l-3.09,2.88h-3.22l-3.09-2.88v-10.53l3.09-2.91h3.22l3.09,2.91v10.53ZM398.75,816.16v-9.43l-2.22-2.1h-2.07l-2.22,2.1v9.43l2.21,2.08h2.1l2.21-2.08Z"/>
  <path class="st0" d="M957.19,804.1l-11.24,15.82-1.24-.66,11.21-15.82,1.26.66Z"/>
  <path class="st0" d="M973.24,804.1l-11.24,15.82-1.24-.66,11.21-15.82,1.26.66Z"/>
  <path class="st0" d="M1245.78,812.36h-5.13v4.82h-1.43v-4.82h-5.13v-1.36h5.13v-4.82h1.43v4.82h5.13v1.36Z"/>
  <path class="st0" d="M1259.36,816.95l-3.09,2.88h-3.22l-3.09-2.88v-10.53l3.09-2.91h3.22l3.09,2.91v10.53ZM1257.93,816.4v-9.43l-2.22-2.1h-2.07l-2.22,2.1v9.43l2.21,2.08h2.1l2.21-2.08Z"/>
  <path class="st0" d="M1135.7,641.16h-6.56v-16.32h6.56v1.36h-5.13v13.61h5.13v1.35Z"/>
  <path class="st0" d="M1173.28,638.28l-3.09,2.88h-8.79v-1.35h2.48v-13.61h-2.48v-1.36h8.79l3.09,2.91v10.53ZM1171.84,637.73v-9.43l-2.22-2.1h-4.31v13.61h4.31l2.22-2.08Z"/>
  <path class="st0" d="M1200.06,641.16h-6.56v-1.35h5.13v-13.61h-5.13v-1.36h6.56v16.32Z"/>
  <path class="st0" d="M653,679.43h-6.56v-16.32h6.56v1.36h-5.13v13.61h5.13v1.35Z"/>
  <path class="st0" d="M690.58,679.28h-1.44v-7.32h-9.17v7.32h-1.43v-16.01h1.43v7.33h9.17v-7.33h1.44v16.01Z"/>
  <path class="st0" d="M717.37,679.43h-6.56v-1.35h5.13v-13.61h-5.13v-1.36h6.56v16.32Z"/>
  <path class="st0" d="M1295.14,250.42h-6.56v-16.32h6.56v1.36h-5.13v13.61h5.13v1.35Z"/>
  <path class="st0" d="M1332.72,247.54l-3.09,2.88h-8.79v-1.35h2.48v-13.61h-2.48v-1.36h8.79l3.09,2.91v3.05l-2.36,2.21,2.36,2.21v3.05ZM1331.29,239.49v-1.93l-2.22-2.1h-4.31v6.13h4.31l2.22-2.1ZM1331.29,246.99v-1.94l-2.22-2.09h-4.31v6.12h4.31l2.22-2.08Z"/>
  <path class="st0" d="M1359.51,250.42h-6.56v-1.35h5.13v-13.61h-5.13v-1.36h6.56v16.32Z"/>
  <path class="st0" d="M1597.02,734.65h-6.56v-16.32h6.56v1.36h-5.13v13.61h5.13v1.35Z"/>
  <path class="st0" d="M1634.77,731.62l-3.26,3.03h-5.87l-3.09-2.88v-10.53l3.09-2.91h5.87l3.26,3.06-1.02.97-2.82-2.66h-4.72l-2.22,2.1v9.43l2.21,2.08h4.73l2.82-2.66,1.02.97Z"/>
  <path class="st0" d="M1661.38,734.65h-6.56v-1.35h5.13v-13.61h-5.13v-1.36h6.56v16.32Z"/>
  <path class="st0" d="M741.88,250.42h-6.56v-16.32h6.56v1.36h-5.13v13.61h5.13v1.35Z"/>
  <path class="st0" d="M779.46,250.27h-1.44v-4.82h-9.17v4.82h-1.43v-5.67l5.48-10.34h1.08l5.48,10.34v5.67ZM777.58,244.08l-4.14-7.79-4.15,7.79h8.29Z"/>
  <path class="st0" d="M806.24,250.42h-6.56v-1.35h5.13v-13.61h-5.13v-1.36h6.56v16.32Z"/>
  <path class="st0" d="M303.68,250.42h-6.56v-16.32h6.56v1.36h-5.13v13.61h5.13v1.35Z"/>
  <path class="st0" d="M341.26,250.42h-8.96l-3.09-2.88v-10.53l3.09-2.91h8.77v1.36h-8.2l-2.22,2.1v9.43l2.21,2.08h6.96v-6.12h-2.48v-1.36h3.92v8.83Z"/>
  <path class="st0" d="M368.05,250.42h-6.56v-1.35h5.13v-13.61h-5.13v-1.36h6.56v16.32Z"/>
  <path class="st1" d="M1827.92,520.5h-26.26l-68.53,68.53h-226.91l-120.02,120.02h344.88l95.56-95.56s.46-92.99,1.28-92.99Z"/>
  <path class="st1" d="M1683.48,431.87h-160.03l-120.44,120.44v93.76h24.42l99.1-99.1h41.24s116.94-116.33,115.71-115.1Z"/>
  <path class="st1" d="M1530.84,261.99h-344.68l-92.32,92.32v62.78h-105.46l-110.22,110.22h-271.39l-88.51,88.51v95.07h22.03l63.6-63.6h134.18l59.7-59.7h23.18l-28.83,28.83v94.48h25.54l234.3-234.3h38.16l96.63-96.63h229.99s115.71-119.61,114.07-117.97Z"/>
  <polygon class="st1" points="968.48 324.57 968.48 415.66 876.31 507.83 530.24 507.83 618.49 419.58 847.84 419.58 942.12 325.3 968.48 324.57"/>
  <path class="st1" d="M983.25,261.98h-347.14l-91.31,91.31v94.38h23.6l70.17-70.17h226.5s119.19-114.51,118.18-115.53Z"/>
  <path class="st1" d="M1547.66,293.79h-27.08l-160.95,160.95h-39.08l-39.24,39.24h-224.81l-91.15,91.15v93.96h25.91l68.94-68.94h225.89l68.32-68.32h36.31l155.72-155.72s2.46-92.32,1.23-92.32Z"/>
  <path class="st1" d="M1389.48,555.38v95.4l-90.17,90.17h-348.68l88.48-88.48h227.89l97.17-97.17s25.31-1.15,25.31.08Z"/>
  <path class="st1" d="M544.8,261.98H199.1l-92.59,92.59v93.11h26.11l68.63-68.63h226.81s114.99-115.32,116.73-117.06Z"/>
  <path class="st1" d="M530.24,324.57h-29.54l-67.7,67.7h-225.89l-115.02,115.02h343.98l92.63-92.63s.62-91.01,1.54-90.09Z"/>
  <path class="st0" d="M1141.58,273.94h-128.13v-9.56h128.13v9.56M1143.99,276.35v-14.38h-132.95v14.38h132.95Z"/>
  <path class="st0" d="M1757.39,273.94h-208.45v-9.56h208.45v9.56M1759.8,276.35v-14.38h-213.27v14.38h213.27Z"/>
  <path class="st0" d="M1757.39,303.38h-193.06v-9.56h193.06v9.56M1759.8,305.8v-14.38h-197.88v14.38h197.88Z"/>
  <path class="st0" d="M1825.51,333.86h-259.54v-9.56h259.54v9.56M1827.92,336.27v-14.38h-264.36v14.38h264.36Z"/>
  <path class="st0" d="M433.38,537.23H94.5v-9.56h338.88v9.56M435.79,539.64v-14.38H92.09v14.38h343.7Z"/>
  <path class="st0" d="M433.38,567.7H94.5v-9.56h338.88v9.56M435.79,570.11v-14.38H92.09v14.38h343.7Z"/>
  <path class="st0" d="M433.38,598.17H94.5v-9.56h338.88v9.56M435.79,600.58v-14.38H92.09v14.38h343.7Z"/>
  <path class="st0" d="M153.94,652.8h-59.44v-9.56h59.44v9.56M156.35,655.21v-14.38h-64.27v14.38h64.27Z"/>
  <path class="st0" d="M153.94,707.42h-59.44v-9.56h59.44v9.56M156.35,709.83v-14.38h-64.27v14.38h64.27Z"/>
  <rect class="st0" x="130.14" y="733.04" width="7.44" height="83.55" transform="translate(908.68 640.96) rotate(90)"/>
  <path class="st0" d="M433.38,737.89H94.5v-9.56h338.88v9.56M435.79,740.3v-14.38H92.09v14.38h343.7Z"/>
  <path class="st0" d="M631.13,737.89h-110.46v-9.56h110.46v9.56M633.54,740.3v-14.38h-115.28v14.38h115.28Z"/>
  <path class="st0" d="M1825.51,364.33h-61.65v-9.56h61.65v9.56M1827.92,366.74v-14.38h-66.47v14.38h66.47Z"/>
  <path class="st0" d="M1825.51,418.44h-61.65v-9.56h61.65v9.56M1827.92,420.85v-14.38h-66.47v14.38h66.47Z"/>
  <path class="st0" d="M1825.51,502h-61.65v-9.56h61.65v9.56M1827.92,504.41v-14.38h-66.47v14.38h66.47Z"/>
  <path class="st0" d="M1825.51,479.11h-61.65v-47.34h61.65v47.34M1827.92,481.52v-52.16h-66.47v52.16h66.47Z"/>
  <rect class="st0" x="1815.19" y="256.44" width="7.19" height="18.26" transform="translate(2084.36 -1553.22) rotate(90)"/>
  <rect class="st0" x="97.62" y="228.57" width="7.19" height="18.26" transform="translate(338.91 136.48) rotate(90)"/>
  <rect class="st0" x="97.62" y="247.65" width="7.19" height="18.26" transform="translate(357.99 155.56) rotate(90)"/>
  <rect class="st0" x="1119.54" y="802.9" width="7.19" height="18.26" transform="translate(1935.17 -311.11) rotate(90)"/>
  <rect class="st0" x="1815.19" y="765.88" width="7.19" height="18.26" transform="translate(2593.79 -1043.78) rotate(90)"/>
  <rect class="st0" x="1815.19" y="718.46" width="7.19" height="18.26" transform="translate(2546.38 -1091.2) rotate(90)"/>
  <rect class="st0" x="1341.95" y="753.54" width="7.19" height="42.32" transform="translate(2120.24 -570.85) rotate(90)"/>
  <path class="st0" d="M1819.49,844.69c0-.31.12-.62.35-.85l7.22-7.22c.47-.47,1.23-.47,1.7,0s.47,1.23,0,1.7l-7.22,7.22c-.47.47-1.23.47-1.7,0-.24-.24-.35-.54-.35-.85Z"/>
  <path class="st0" d="M1791.79,843.77c0-.31.12-.62.35-.85l34.92-34.92c.47-.47,1.23-.47,1.7,0s.47,1.23,0,1.7l-34.92,34.92c-.47.47-1.23.47-1.7,0-.24-.24-.35-.54-.35-.85Z"/>
  <path class="st0" d="M1326.88,815.61c0-.31.12-.62.35-.85l7.22-7.22c.47-.47,1.23-.47,1.7,0,.47.47.47,1.23,0,1.7l-7.22,7.22c-.47.47-1.23.47-1.7,0-.24-.24-.35-.54-.35-.85Z"/>
  <path class="st0" d="M1326.88,844.23c0-.31.12-.62.35-.85l34.92-34.92c.47-.47,1.23-.47,1.7,0,.47.47.47,1.23,0,1.7l-34.92,34.92c-.47.47-1.23.47-1.7,0-.24-.24-.35-.54-.35-.85Z"/>
  <path class="st0" d="M1766.42,843.77c0-.31.12-.62.35-.85l34.92-34.92c.47-.47,1.23-.47,1.7,0,.47.47.47,1.23,0,1.7l-34.92,34.92c-.47.47-1.23.47-1.7,0-.24-.24-.35-.54-.35-.85Z"/>
  <path class="st0" d="M1740.65,843.77c0-.31.12-.62.35-.85l34.92-34.92c.47-.47,1.23-.47,1.7,0,.47.47.47,1.23,0,1.7l-34.92,34.92c-.47.47-1.23.47-1.7,0-.24-.24-.35-.54-.35-.85Z"/>
  <path class="st0" d="M1713.34,843.77c0-.31.12-.62.35-.85l34.92-34.92c.47-.47,1.23-.47,1.7,0,.47.47.47,1.23,0,1.7l-34.92,34.92c-.47.47-1.23.47-1.7,0-.24-.24-.35-.54-.35-.85Z"/>
  <path class="st0" d="M1687.97,843.77c0-.31.12-.62.35-.85l34.92-34.92c.47-.47,1.23-.47,1.7,0,.47.47.47,1.23,0,1.7l-34.92,34.92c-.47.47-1.23.47-1.7,0-.24-.24-.35-.54-.35-.85Z"/>
  <path class="st0" d="M1662.2,843.77c0-.31.12-.62.35-.85l34.92-34.92c.47-.47,1.23-.47,1.7,0s.47,1.23,0,1.7l-34.92,34.92c-.47.47-1.23.47-1.7,0-.24-.24-.35-.54-.35-.85Z"/>
  <path class="st0" d="M1635.28,843.77c0-.31.12-.62.35-.85l34.92-34.92c.47-.47,1.23-.47,1.7,0,.47.47.47,1.23,0,1.7l-34.92,34.92c-.47.47-1.23.47-1.7,0-.24-.24-.35-.54-.35-.85Z"/>
  <path class="st0" d="M1609.91,843.77c0-.31.12-.62.35-.85l34.92-34.92c.47-.47,1.23-.47,1.7,0,.47.47.47,1.23,0,1.7l-34.92,34.92c-.47.47-1.23.47-1.7,0-.24-.24-.35-.54-.35-.85Z"/>
  <path class="st0" d="M1584.14,843.77c0-.31.12-.62.35-.85l34.92-34.92c.47-.47,1.23-.47,1.7,0,.47.47.47,1.23,0,1.7l-34.92,34.92c-.47.47-1.23.47-1.7,0-.24-.24-.35-.54-.35-.85Z"/>
  <path class="st0" d="M1557.61,843.77c0-.31.12-.62.35-.85l34.92-34.92c.47-.47,1.23-.47,1.7,0s.47,1.23,0,1.7l-34.92,34.92c-.47.47-1.23.47-1.7,0-.24-.24-.35-.54-.35-.85Z"/>
  <path class="st0" d="M1532.24,843.77c0-.31.12-.62.35-.85l34.92-34.92c.47-.47,1.23-.47,1.7,0,.47.47.47,1.23,0,1.7l-34.92,34.92c-.47.47-1.23.47-1.7,0-.24-.24-.35-.54-.35-.85Z"/>
  <path class="st0" d="M1506.47,843.77c0-.31.12-.62.35-.85l34.92-34.92c.47-.47,1.23-.47,1.7,0,.47.47.47,1.23,0,1.7l-34.92,34.92c-.47.47-1.23.47-1.7,0-.24-.24-.35-.54-.35-.85Z"/>
  <path class="st0" d="M1479.17,843.77c0-.31.12-.62.35-.85l34.92-34.92c.47-.47,1.23-.47,1.7,0s.47,1.23,0,1.7l-34.92,34.92c-.47.47-1.23.47-1.7,0-.24-.24-.35-.54-.35-.85Z"/>
  <path class="st0" d="M1453.79,843.77c0-.31.12-.62.35-.85l34.92-34.92c.47-.47,1.23-.47,1.7,0,.47.47.47,1.23,0,1.7l-34.92,34.92c-.47.47-1.23.47-1.7,0-.24-.24-.35-.54-.35-.85Z"/>
  <path class="st0" d="M1428.02,843.77c0-.31.12-.62.35-.85l34.92-34.92c.47-.47,1.23-.47,1.7,0s.47,1.23,0,1.7l-34.92,34.92c-.47.47-1.23.47-1.7,0-.24-.24-.35-.54-.35-.85Z"/>
  <path class="st0" d="M1401.11,843.77c0-.31.12-.62.35-.85l34.92-34.92c.47-.47,1.23-.47,1.7,0s.47,1.23,0,1.7l-34.92,34.92c-.47.47-1.23.47-1.7,0-.24-.24-.35-.54-.35-.85Z"/>
  <path class="st0" d="M1375.73,843.77c0-.31.12-.62.35-.85l34.92-34.92c.47-.47,1.23-.47,1.7,0s.47,1.23,0,1.7l-34.92,34.92c-.47.47-1.23.47-1.7,0-.24-.24-.35-.54-.35-.85Z"/>
  <path class="st0" d="M1349.96,843.77c0-.31.12-.62.35-.85l34.92-34.92c.47-.47,1.23-.47,1.7,0,.47.47.47,1.23,0,1.7l-34.92,34.92c-.47.47-1.23.47-1.7,0-.24-.24-.35-.54-.35-.85Z"/>
  <polygon class="st0" points="90.88 844.69 90.88 769.89 1294.28 769.89 1294.28 844.69 1291.87 844.69 1291.87 772.3 93.29 772.3 93.29 844.69 90.88 844.69"/>
  <polygon class="st0" points="1651.99 394.49 1658.12 388.36 1656.41 386.65 1651.5 391.56 1651.5 378.17 1649.09 378.17 1649.09 391.58 1644.16 386.65 1642.47 388.36 1648.57 394.49 1650.28 396.2 1651.99 394.49"/>
  <polygon class="st0" points="1252.35 430.72 1243.69 430.72 1243.69 433.14 1250.63 433.14 1241.16 442.61 1242.86 444.32 1252.35 434.83 1252.35 441.8 1254.75 441.79 1254.77 433.14 1254.77 430.72 1252.35 430.72"/>
  <polygon class="st0" points="920.32 670.67 914.2 664.55 912.48 666.26 917.39 671.17 904 671.17 904 673.58 917.41 673.58 912.48 678.51 914.2 680.19 920.32 674.1 922.03 672.38 920.32 670.67"/>
  <polygon class="st0" points="423.18 810.83 417.05 804.71 415.34 806.42 420.25 811.32 406.86 811.32 406.86 813.74 420.27 813.74 415.34 818.67 417.05 820.35 423.18 814.25 424.89 812.54 423.18 810.83"/>
  <polygon class="st0" points="371.03 810.83 364.91 804.71 363.2 806.42 368.1 811.32 354.71 811.32 354.71 813.74 368.13 813.74 363.2 818.67 364.91 820.35 371.03 814.25 372.74 812.54 371.03 810.83"/>
  <polygon class="st0" points="743.23 406.14 749.36 400.02 747.65 398.31 742.74 403.21 742.74 389.82 740.33 389.82 740.33 403.24 735.4 398.31 733.71 400.02 739.81 406.14 741.52 407.85 743.23 406.14"/>
  <polygon class="st0" points="579.74 244.29 573.62 238.17 571.91 239.88 576.81 244.78 563.42 244.78 563.42 247.19 576.84 247.19 571.91 252.12 573.62 253.81 579.74 247.71 581.45 246 579.74 244.29"/>
</svg>