<?xml version="1.0" encoding="UTF-8"?>
<svg id="Livello_1" data-name="Livello 1" xmlns="http://www.w3.org/2000/svg" viewBox="0 0 403.4 414.23">
  <defs>
    <style>
      .cls-1 {
        fill: red;
      }
    </style>
  </defs>
  <path class="cls-1" d="M197.24,296.12c-41.69,0-75.62-33.92-75.62-75.62s33.92-75.62,75.62-75.62,75.62,33.92,75.62,75.62-33.92,75.62-75.62,75.62ZM197.24,153.31c-37.05,0-67.19,30.14-67.19,67.19s30.14,67.19,67.19,67.19,67.19-30.14,67.19-67.19-30.14-67.19-67.19-67.19ZM216.87,251.5c-9.71,0-17.6-7.9-17.6-17.6v-26.78c0-9.71,7.9-17.6,17.6-17.6s17.6,7.9,17.6,17.6v26.78c0,9.71-7.9,17.6-17.6,17.6ZM216.87,197.94c-5.06,0-9.17,4.11-9.17,9.17v26.78c0,5.06,4.11,9.17,9.17,9.17s9.17-4.11,9.17-9.17v-26.78c0-5.06-4.11-9.17-9.17-9.17ZM176.71,251.5c-2.33,0-4.22-1.89-4.22-4.22v-44.39l-10.89,9.34c-1.77,1.51-4.43,1.31-5.94-.46-1.51-1.77-1.31-4.43.46-5.94l17.85-15.3c1.25-1.08,3.01-1.32,4.51-.63,1.49.69,2.45,2.18,2.45,3.83v53.55c0,2.33-1.89,4.22-4.22,4.22ZM277.57,162.24c-1.08,0-2.16-.41-2.98-1.23l-17.85-17.85c-1.65-1.65-1.65-4.31,0-5.96s4.31-1.65,5.96,0l17.85,17.85c1.65,1.65,1.65,4.31,0,5.96-.82.82-1.9,1.23-2.98,1.23ZM215.09,126.54h-35.7c-2.33,0-4.22-1.89-4.22-4.22s1.89-4.22,4.22-4.22h35.7c2.33,0,4.22,1.89,4.22,4.22s-1.89,4.22-4.22,4.22Z"/>
</svg>