<?xml version="1.0" encoding="UTF-8"?>
<svg id="Livello_1" data-name="Livello 1" xmlns="http://www.w3.org/2000/svg" viewBox="0 0 403.4 414.23">
  <defs>
    <style>
      .cls-1 {
        fill: red;
      }
    </style>
  </defs>
  <path class="cls-1" d="M201.7,239.59c-17.91,0-32.48-14.57-32.48-32.48s14.57-32.48,32.48-32.48,32.48,14.57,32.48,32.48-14.57,32.48-32.48,32.48ZM201.7,183.07c-13.26,0-24.05,10.79-24.05,24.05s10.79,24.05,24.05,24.05,24.05-10.79,24.05-24.05-10.79-24.05-24.05-24.05Z"/>
  <path class="cls-1" d="M201.7,296.12c-4.64,0-7.19,0-9.71-.74-3.7-1.08-6.92-3.26-9.3-6.3-1.62-2.06-2.56-4.43-4.28-8.74-1.51-3.78-5.72-5.72-9.59-4.44l-4.96,1.65c-4.48,1.49-6.92,2.31-9.6,2.39-3.22.06-6.43-.66-9.27-2.19-2.37-1.28-4.19-3.1-7.51-6.42-3.31-3.31-5.14-5.13-6.42-7.51-1.53-2.84-2.29-6.04-2.19-9.27.08-2.69.9-5.14,2.38-9.59l2.03-6.08c1.08-3.24-.56-6.76-3.73-8.03-5.41-2.17-8.39-3.36-10.85-5.59-2.17-1.97-3.84-4.45-4.85-7.17-1.16-3.1-1.16-6.34-1.16-12.23,0-4.99,0-7.73.87-10.45.77-2.42,2.02-4.62,3.69-6.53,1.89-2.15,4.23-3.55,8.46-6.09l2.61-1.57c3.99-2.39,5.63-7.26,3.9-11.57-1.68-4.19-2.6-6.5-2.86-9.05-.39-3.77.38-7.5,2.22-10.81,1.25-2.24,3.01-4,6.2-7.19,3.01-3.01,4.66-4.67,6.77-5.88,3.1-1.78,6.63-2.62,10.21-2.4,2.41.14,4.61.87,8.59,2.19l5.46,1.82c3.86,1.29,8.07-.67,9.58-4.45,1.72-4.31,2.67-6.67,4.29-8.74,2.38-3.03,5.6-5.21,9.3-6.3,2.52-.73,5.08-.73,9.71-.73s7.19,0,9.7.73h0c3.7,1.09,6.92,3.26,9.3,6.3,1.62,2.07,2.56,4.43,4.29,8.74,1.51,3.78,5.73,5.74,9.59,4.45l5.38-1.79c4.02-1.34,6.24-2.08,8.67-2.23,3.58-.21,7.12.63,10.22,2.42,2.09,1.2,3.73,2.84,6.71,5.81,3.24,3.24,5,5,6.25,7.24,1.84,3.31,2.61,7.05,2.22,10.81-.26,2.55-1.19,4.85-2.86,9.04-1.73,4.32-.09,9.19,3.9,11.58l2.61,1.57c4.24,2.54,6.57,3.94,8.46,6.08,1.68,1.92,2.93,4.12,3.7,6.54.87,2.72.87,5.46.87,10.45,0,5.89,0,9.13-1.16,12.24-1.02,2.73-2.69,5.2-4.85,7.16-2.47,2.24-5.45,3.43-10.86,5.59-3.17,1.27-4.81,4.8-3.73,8.04l2.03,6.08c1.48,4.45,2.3,6.9,2.38,9.59.1,3.23-.66,6.44-2.19,9.27-1.28,2.37-3.1,4.19-6.42,7.51-3.31,3.31-5.14,5.14-7.51,6.42-2.84,1.53-6.02,2.28-9.27,2.19-2.7-.09-5.15-.91-9.6-2.39l-4.96-1.65c-3.85-1.27-8.07.66-9.58,4.44-1.72,4.31-2.67,6.67-4.29,8.74-2.38,3.04-5.6,5.22-9.3,6.3-2.52.74-5.07.74-9.7.74ZM171.24,267.08c6.43,0,12.49,3.87,14.99,10.14,1.48,3.7,2.22,5.55,3.09,6.66,1.29,1.65,3.03,2.82,5.03,3.41,1.36.4,3.36.4,7.34.4s5.98,0,7.34-.4c2.01-.58,3.75-1.76,5.03-3.4.87-1.12,1.62-2.97,3.1-6.67,3.16-7.92,11.98-12.01,20.08-9.31l4.96,1.65c3.97,1.32,5.78,1.91,7.19,1.96,1.7,0,3.47-.36,5.01-1.19,1.28-.7,2.71-2.12,5.55-4.96,2.84-2.84,4.27-4.27,4.96-5.55.83-1.54,1.23-3.27,1.18-5.01-.05-1.45-.68-3.37-1.96-7.18l-2.03-6.08c-2.49-7.47,1.29-15.61,8.59-18.53,4.85-1.93,7.04-2.84,8.32-4,1.16-1.05,2.07-2.4,2.62-3.87.63-1.68.63-4.22.63-9.29,0-4.27,0-6.41-.47-7.88-.42-1.31-1.09-2.5-2-3.54-1.02-1.16-2.83-2.25-6.45-4.42l-2.62-1.57c-7.56-4.54-10.66-13.76-7.39-21.94,1.44-3.6,2.16-5.41,2.31-6.78.21-2.04-.2-4.06-1.2-5.85-.67-1.21-2.05-2.59-4.79-5.33-2.6-2.59-3.88-3.87-5.01-4.52-1.68-.97-3.58-1.4-5.53-1.31-1.31.08-3.04.66-6.5,1.81l-5.38,1.79c-8.09,2.7-16.91-1.39-20.08-9.31-1.48-3.7-2.22-5.55-3.09-6.66-1.28-1.64-3.02-2.82-5.03-3.41h0c-1.36-.4-3.36-.4-7.35-.4s-5.98,0-7.34.4c-2,.59-3.74,1.77-5.03,3.41-.87,1.11-1.62,2.97-3.1,6.66-3.17,7.92-11.98,12.01-20.08,9.32l-5.38-1.8c-3.49-1.16-5.2-1.73-6.5-1.8-1.94-.09-3.84.34-5.52,1.3-1.14.65-2.43,1.94-4.99,4.51-2.76,2.75-4.13,4.13-4.81,5.34-.99,1.79-1.41,3.8-1.2,5.84.14,1.38.87,3.19,2.31,6.78,3.27,8.18.16,17.4-7.39,21.93l-2.61,1.57c-3.62,2.18-5.44,3.27-6.47,4.43-.9,1.03-1.58,2.22-1.99,3.53-.47,1.47-.47,3.62-.47,7.89,0,5.07,0,7.61.63,9.29.55,1.47,1.46,2.81,2.62,3.88,1.27,1.15,3.47,2.06,8.31,3.99,7.31,2.93,11.08,11.07,8.59,18.53l-2.03,6.08c-1.27,3.82-1.91,5.73-1.96,7.18-.05,1.74.36,3.48,1.18,5.01.67,1.24,2,2.6,4.96,5.55,2.84,2.84,4.27,4.27,5.55,4.96,1.53.82,3.21,1.23,5.01,1.18,1.45-.04,3.35-.68,7.14-1.94l5.01-1.67c1.68-.56,3.4-.83,5.09-.83Z"/>
</svg>