<?xml version="1.0" encoding="UTF-8"?>
<svg id="Livello_1" data-name="Livello 1" xmlns="http://www.w3.org/2000/svg" viewBox="0 0 403.4 414.23">
  <defs>
    <style>
      .cls-1 {
        fill: red;
      }
    </style>
  </defs>
  <path class="cls-1" d="M277.57,287.2c-2.33,0-4.22-1.89-4.22-4.22v-84.29c0-2.33,1.89-4.22,4.22-4.22s4.22,1.89,4.22,4.22v84.29c0,2.33-1.89,4.22-4.22,4.22ZM226.99,287.2c-2.33,0-4.22-1.89-4.22-4.22v-50.58c0-2.33,1.89-4.22,4.22-4.22s4.22,1.89,4.22,4.22v50.58c0,2.33-1.89,4.22-4.22,4.22ZM176.42,287.2c-2.33,0-4.22-1.89-4.22-4.22v-67.43c0-2.33,1.89-4.22,4.22-4.22s4.22,1.89,4.22,4.22v67.43c0,2.33-1.89,4.22-4.22,4.22ZM125.84,287.2c-2.33,0-4.22-1.89-4.22-4.22v-33.71c0-2.33,1.89-4.22,4.22-4.22s4.22,1.89,4.22,4.22v33.71c0,2.33-1.89,4.22-4.22,4.22ZM222.78,202.91c-9.3,0-16.86-7.56-16.86-16.86,0-3.06.81-6,2.33-8.57l-19.05-19.05c-5.14,3.04-12,3.04-17.13,0l-19.05,19.05c1.52,2.56,2.33,5.5,2.33,8.57,0,9.3-7.56,16.86-16.86,16.86s-16.86-7.56-16.86-16.86,7.56-16.86,16.86-16.86c3.06,0,6,.81,8.57,2.33l19.05-19.05c-1.52-2.57-2.33-5.51-2.33-8.57,0-9.3,7.56-16.86,16.86-16.86s16.86,7.56,16.86,16.86c0,3.06-.81,6-2.33,8.57l19.05,19.05c5.13-3.04,12-3.04,17.13,0l19.05-19.05c-1.52-2.57-2.33-5.51-2.33-8.57,0-9.3,7.56-16.86,16.86-16.86s16.86,7.56,16.86,16.86-7.56,16.86-16.86,16.86c-3.06,0-6-.81-8.57-2.33l-19.05,19.05c1.52,2.56,2.33,5.5,2.33,8.57,0,9.3-7.56,16.86-16.86,16.86ZM216.82,180.08c-1.59,1.59-2.47,3.71-2.47,5.96,0,4.65,3.78,8.43,8.43,8.43s8.43-3.78,8.43-8.43c0-2.25-.88-4.37-2.47-5.96-3.18-3.18-8.74-3.18-11.92,0ZM138.48,177.62c-4.65,0-8.43,3.78-8.43,8.43s3.78,8.43,8.43,8.43,8.43-3.78,8.43-8.43c0-2.25-.88-4.37-2.47-5.96s-3.71-2.47-5.96-2.47ZM258.96,149.86c1.59,1.59,3.71,2.47,5.96,2.47,4.65,0,8.43-3.78,8.43-8.43s-3.78-8.43-8.43-8.43-8.43,3.78-8.43,8.43c0,2.25.88,4.37,2.47,5.96ZM174.67,149.86c3.18,3.18,8.72,3.17,11.91.01l.03-.03c1.58-1.59,2.45-3.7,2.45-5.94,0-4.65-3.78-8.43-8.43-8.43s-8.43,3.78-8.43,8.43c0,2.25.88,4.37,2.47,5.96Z"/>
</svg>