<?xml version="1.0" encoding="UTF-8"?>
<svg id="Livello_1" xmlns="http://www.w3.org/2000/svg" version="1.1" viewBox="0 0 758.59 60.84">
  <!-- Generator: Adobe Illustrator 30.2.1, SVG Export Plug-In . SVG Version: 2.1.1 Build 1)  -->
  <defs>
    <style>
      .st0 {
        fill: #fff;
      }

      .st1 {
        isolation: isolate;
      }
    </style>
  </defs>
  <path class="st0" d="M199.43,50.18c-.74-5.18-.44-9.97-.43-15.45h15.35l.02,5.51c0,2.74,1.7,4.89,4.6,4.92,7.21.06,14.02.13,21.56-.22l-42.14-28.32,27.49-.19.02-16.31,18.64.05,13.6,10.6.17,5.62-31.83.27,38.08,25.53.1,18.44-53.07.03c-6.11,0-11.23-3.93-12.17-10.48h0Z"/>
  <path class="st0" d="M394.97,19.46c-7.08,5.44-7,16.13-.31,21.6,2.84,2.32,6.82,4.22,10.44,4.32l9.18.25,5.21,5.05.07,9.9-14.31.1c-5.95.04-10.74-1.86-16.39-4.28l4.88,4.19-27.33-.02-22.68-15.08-.46,3.95h-15.37l-.02-10.29,5.35-.45-5.32-3.91-.03-34.59,15.51-.12.17,15.24L366.57.16l27.54.19-44.94,30.04,35.89,23.66c-8.51-8.72-13.1-19.23-9.9-31.02,3.75-12.1,14.41-21.28,27.22-22.67,5.36-.58,10.99-.34,16.24-.1l18.91,18.44-.04,41.84-15.44.14-.06-35.79-9.88-9.46c-6.04-1.05-12.06.13-17.13,4.02h0Z"/>
  <path class="st0" d="M148.09,30.22c-.1,10.04,9.37,15.72,19.36,15.34,6.94-.26,4.72-.04,10.5,5.09v9.95l-13.84.06c-11.51.05-22.12-5.79-27.76-15.83-6.36-11.35-4.53-25.06,4.52-34.36C152.04-.99,162.07-.16,176.93.18l19.04,18.51v41.9l-15.56-.02-.04-35.68-9.72-9.47c-10.1-1.77-22.44,3.44-22.55,14.79h-.01Z"/>
  <path class="st0" d="M37.98,15.39c-10-1.66-22.37,3.35-22.5,14.82-.06,5.56,2.9,10.33,8.1,12.99,8.57,4.39,14.76,1.05,16.65,2.78l5.04,4.6.07,10.04c-6.33-.03-11.63.38-17.69-.22C9.96,58.63-3.08,42.4.63,24.78,3.65,10.44,17.05.04,31.42.11l12.86.06,19.03,18.46.05,41.94-15.62.04-.03-35.76-9.72-9.47h0Z"/>
  <path class="st0" d="M282.63,20.75c-5.33,5.27-5.15,14.12,0,19.28,7.64,7.66,16.09,4.66,20.35,5.84,1.66.46,4.69,3.31,5.21,4.96.85,2.75.44,6.52.33,9.75-6.57-.03-12.51.52-18.82-.35-17.74-2.44-30.03-19.45-25.46-36.86,3.4-12.95,15.07-21.61,27.99-23.28l15.32.08,19,18.39.08,42.02-15.58.02-.02-35.7-9.74-9.48c-6.62-.93-13.48.21-18.64,5.32h-.02Z"/>
  <path class="st0" d="M81.67,26.55l50.67,33.86c-9.74-.07-18.6,1.18-27.3-.31-8.42-3.32-15.28-10.67-23.17-14.32l-.62,3.69-15.14-.05-.02-10.34,5.85-.24-5.85-3.98V.11l53.82.04c6.11,0,10.95,4.85,11.54,10.95.47,4.95.34,9.7.36,14.94l-15.36.06-.09-6.09c-.03-2.2-1.75-4.37-4.21-4.37l-30.34-.02-.13,10.95v-.02Z"/>
  <path class="st0" d="M541.26,35.02V0h-78.45v60.84h70.68l25.78-25.82h-18.01ZM506.06,23.53l.04-8.16h3.01v8.16h4.37v-6.91h2.83c-.04,3.51-.07,12.96-.04,16.33l-2.79.04v-6.41h-4.37v7.48l-3.01-.04-.04-7.45h-3.04l-.04-3.04h3.08,0ZM498.58,45.98c-6.37-3.22-21.77-1.93-28.72-2.18v-10.2h27.5c3.08-.14,2.83,3.47,2.61,5.62l-2.97,1.04.18-2.72c.04-.32-.54-.79-.86-.79l-7.52-.04v3.97c3.94.25,7.81.86,11.46,2.54,0,0-1.68,2.76-1.68,2.76ZM496.79,21.17c1.29,1.32,2.33,2.47,3.4,3.9-.61.54-1.79,1.65-2.36,2.18-1.07-1.47-2.15-2.76-3.47-3.97-3.08,2.18-6.34,3.4-10.1,4.33,2.61.68,13.11.07,15.97.29l-.04,3.26c-9.49-.07-21.05-.04-30.51-.04l-.04-15.58c2.29-.07,6.34.32,8.24,1.18,2.36,1.07,1.9,4.37,1.97,6.45l-2.86,1.18c-.25-4.55.68-4.94-4.26-5.48v9.02l8.63-.04v-12.07c4.55.39,8.88,1.18,12.82,3.51,1.4-1.5,2.51-3.08,3.62-4.83l2.51,1.93c-.93,1.68-2.18,3.22-3.51,4.76v.02ZM504.92,45.62l-1.65-2.4c1.86-1.36,3.54-2.43,5.59-3.65l1.68,2.33s-5.62,3.72-5.62,3.72ZM517.81,38.43l-4.12.04,2.18,5.16c.21.5.36.97.57,1.65l-2.83,1.04c-.9-2.79-1.86-5.16-3.04-7.84l-7.66-.04-.04-3.04h14.93v3.04h.01ZM522.82,31.3c1.22,1.29,2.26,2.54,3.22,4.05l4.48.04-1.93-6.3c.82-.25,1.68-.43,2.79-.64,1.11,3.12,2.01,6.05,2.79,9.35l-2.36,1c-.68-.47-2.94-.61-3.76-.43l2.76,6.55-2.76,1.47c-1.32-3.62-2.83-7.45-5.3-10.46-.14,1.93-.11,3.65-.07,5.55v4.58c-.9-.07-2.08.04-2.97-.18v-13.71l-2.15,1-.75-3.22,2.9-1.4v-13.5h2.94c0,2.54-.04,9.27.07,11.71,1.07-.75,2.33-1.58,3.19-2.58-2.18-4.55-3.72-3.26-.54-6.55,1,1.36,1.83,2.65,2.69,4.23,1.61-2.33,2.61-4.69,3.72-7.2l2.61,1.58c-2.11,5.87-6.19,10.96-11.57,13.93-.25.18-.21.93,0,1.15v-.02Z"/>
  <polygon class="st0" points="584.37 35.02 558.56 60.84 545.09 60.84 570.91 35.02 584.37 35.02"/>
  <polygon class="st0" points="609.44 35.02 583.66 60.84 570.19 60.84 596.01 35.02 609.44 35.02"/>
  <polygon class="st0" points="634.54 35.02 608.76 60.84 595.26 60.84 621.11 35.02 634.54 35.02"/>
  <polygon class="st0" points="659.64 35.02 633.82 60.84 620.36 60.84 646.18 35.02 659.64 35.02"/>
  <polygon class="st0" points="684.71 35.02 658.93 60.84 645.43 60.84 671.28 35.02 684.71 35.02"/>
  <polygon class="st0" points="709.81 35.02 683.99 60.84 670.53 60.84 696.34 35.02 709.81 35.02"/>
  <polygon class="st0" points="734.91 35.02 709.09 60.84 695.63 60.84 721.44 35.02 734.91 35.02"/>
  <polygon class="st0" points="756.89 35.02 756.89 38.1 734.19 60.84 720.69 60.84 746.55 35.02 756.89 35.02"/>
  <path class="st0" d="M491.53,21.42c-2.29,1.4-4.58,2.29-7.13,2.83v-4.94c1.61-.04,5.69,1.22,7.13,2.11Z"/>
  <polygon class="st0" points="485.4 36.74 485.4 40.61 480.78 40.57 480.78 36.74 485.4 36.74"/>
  <polygon class="st0" points="477.38 36.71 477.38 40.61 472.98 40.57 472.98 36.74 477.38 36.71"/>
  <g class="st1">
    <g class="st1">
      <path class="st0" d="M572.72,14.95v-2.96l-.99-.99h-13.82l-.99.99v9.87l.99.99h13.82l.99-.99v-2.96h6.91v4.94l-4.94,4.94h-19.74l-4.94-4.94v-13.82l4.94-4.94h19.74l4.94,4.94v4.94h-6.91Z"/>
      <path class="st0" d="M613.62,10.02v18.75h-6.91v-5.92h-16.78v5.92h-6.91V10.02l4.94-4.94h20.73l4.94,4.94ZM606.71,16.92v-4.94l-.99-.99h-14.81l-.99.99v4.94h16.78Z"/>
      <path class="st0" d="M646.61,23.83l-4.94,4.94h-19.74l-4.94-4.94V5.08h6.91v16.78l.99.99h13.82l.99-.99V5.08h6.91v18.75Z"/>
      <path class="st0" d="M678.63,11h-10.86v17.77h-6.91V11h-10.86v-5.92h28.63v5.92Z"/>
      <path class="st0" d="M682.03,28.77V5.08h6.91v23.69h-6.91Z"/>
      <path class="st0" d="M723.9,10.02v13.82l-4.94,4.94h-21.72l-4.94-4.94v-13.82l4.94-4.94h21.72l4.94,4.94ZM716.99,11.99l-.99-.99h-15.79l-.99.99v9.87l.99.99h15.79l.99-.99v-9.87Z"/>
      <path class="st0" d="M756.9,10.02v18.75h-6.91V11.99l-.99-.99h-13.82l-.99.99v16.78h-6.91V10.02l4.94-4.94h19.74l4.94,4.94Z"/>
    </g>
  </g>
</svg>