<?xml version="1.0" encoding="UTF-8"?>
<svg id="Livello_1" xmlns="http://www.w3.org/2000/svg" version="1.1" viewBox="0 0 1920 1080">
  <!-- Generator: Adobe Illustrator 30.2.1, SVG Export Plug-In . SVG Version: 2.1.1 Build 1)  -->
  <defs>
    <style>
      .st0 {
        fill: #fff;
      }
    </style>
  </defs>
  <path class="st0" d="M180.92,367.8v344.39h98.88v-344.39h-98.88ZM201.16,445.41h41.3v-4.53h8.73v4.53h11.07v9.6h-11.07v18.34h-8.73l-41.3-17.46v-10.49ZM262.26,616.43l-44.61,11.52v.17h44.61v8.56h-61.1v-12.05l36.58-9.33v-.17h-36.58v-8.56h61.1v9.86ZM227.34,600.81v-19.21h8.73v19.21h-8.73ZM247.77,576.53h-32.12c-9.77,0-15.36-5.14-15.36-14.57s5.59-14.59,15.36-14.59h32.12c9.79,0,15.38,5.16,15.38,14.59s-5.59,14.57-15.38,14.57ZM247.77,541.71h-1.13v-9.09h1.76c4.36,0,6.03-1.91,6.03-4.97,0-3.4-1.66-5.33-7.52-5.33h-11.69v.17c3.5,1.66,5.33,4.46,5.33,8.73,0,7.08-4.97,10.66-13.96,10.66h-10.92c-9.77,0-15.36-5.16-15.36-14.59s5.59-14.57,15.36-14.57h31.61c10.3,0,15.89,4.7,15.89,14.66,0,9.43-5.59,14.32-15.38,14.32ZM247.77,506.44h-31.59c-10.3,0-15.89-4.72-15.89-14.66,0-9.43,5.59-14.32,15.36-14.32h1.13v9.09h-1.74c-4.36,0-6.03,1.91-6.03,4.97,0,3.4,1.66,5.33,7.5,5.33h11.69v-.19c-3.48-1.64-5.31-4.44-5.31-8.73,0-7.07,4.97-10.64,13.96-10.64h10.9c9.79,0,15.38,5.14,15.38,14.57s-5.59,14.59-15.38,14.59Z"/>
  <g>
    <path class="st0" d="M254.42,561.96c0,3.04-1.66,4.97-6.03,4.97h-33.35c-4.36,0-6.03-1.93-6.03-4.97s1.66-4.99,6.03-4.99h33.35c4.36,0,6.03,1.93,6.03,4.99Z"/>
    <path class="st0" d="M231.8,527.29c0,3.33-1.93,4.99-6.03,4.99h-10.83c-4.01,0-5.93-1.66-5.93-4.99s1.93-4.97,5.93-4.97h10.83c4.1,0,6.03,1.66,6.03,4.97Z"/>
    <path class="st0" d="M254.42,491.85c0,3.33-1.93,4.99-5.95,4.99h-10.83c-4.1,0-6.01-1.66-6.01-4.99s1.91-4.97,6.01-4.97h10.83c4.02,0,5.95,1.66,5.95,4.97Z"/>
    <polygon class="st0" points="242.46 455.01 242.46 464.63 218.62 455.2 218.62 455.01 242.46 455.01"/>
  </g>
  <g>
    <path class="st0" d="M1051.05,547.53l-.1-165.66c24.03-.9,67.28,3.5,87.43,12.67,25.23,11.22,20.1,46.26,20.86,68.33l-30.58,12.52c-2.45-48.11,7.59-52.64-44.96-58.13l.03,95.8,91.64-.18.08-128.28c48.17,4.06,94.32,12.26,136.12,37.05,14.7-15.77,26.57-32.63,38.28-51.14l27.02,20.43c-10.19,18.03-23.54,34.14-37.44,50.75,13.56,14.12,24.71,26.23,35.93,41.45-6.26,5.79-18.85,17.42-25.1,23.2-11.25-15.81-22.54-29.32-36.76-42.23-32.84,23.17-67.3,36.08-107.32,46.04,27.76,7.33,139.18.62,169.66,3.08l-.49,34.56c-100.73-.59-223.57-.44-324.31-.26ZM1283.22,444.36c-15.03-9.78-58.58-22.95-75.39-22.53l-.02,52.53c27-5.63,51.28-15.25,75.41-30Z"/>
    <path class="st0" d="M1614.48,657.39l.25,48.63c-9.7-.62-22.08.43-31.55-1.67l-.13-145.94-22.99,10.71-7.9-34.33,30.9-14.91.12-143.38,31.15-.11c-.12,27.08-.41,98.69.72,124.75,11.32-8.09,24.79-16.9,33.78-27.46-23.26-48.28-39.47-34.65-5.81-69.87,10.89,14.6,19.55,28.37,28.85,45.06,16.84-24.77,27.79-49.9,39.59-76.41l27.6,16.58c-22.32,62.62-65.8,116.54-123.02,148.2-2.5,1.68-2.11,9.96,0,12.12,13.16,13.53,23.91,27.08,34.29,43.14l47.71.19-20.74-66.78c8.96-2.8,18.18-4.89,29.81-7.12,11.89,33.08,21.37,64.45,29.56,99.62l-24.95,10.36c-7.43-4.76-31.36-6.43-39.93-4.29l29.38,69.5-29.64,15.52c-14.03-38.2-29.91-79.21-56.22-110.94-1.36,20.27-.94,38.74-.84,58.83Z"/>
    <path class="st0" d="M789.36,468.85c75.04,6.24,173.5,17.04,230.55,70.23l-22.22,23.98c-56.36-44.31-136.67-58.52-207.98-60.64l-.39,37.86-31.12-.24-.43-40.36-69.29-.35-.07-31.39c22.35-1.52,47.39-.31,69.67.24l.06-88.38c53.37,2.18,127.5,5.81,180.68,10.38,68.6,4.61,84.76,7.08,78.53,81.83l-31.9,12.25c-1.51-20,9.72-56.85-13.51-58.64-25.56-2.44-154.46-10.07-182.74-11.85l.15,55.08Z"/>
    <path class="st0" d="M437.48,652.32l-1.03,50.74-30.81-.07-.07-92.59c40.38,2.53,22.86-6.4,56.89,16.29l40.28,26.85.94-43.63c34.71.78,52.33,5.97,83.99,19.69,59.15-51.11,29.22-189.98,36.29-258.85l32.57,10.25c-3.11,84.12,17.89,195.43-38.75,264.7,16.08,11.15,31.09,22.48,45.47,35.39l-21.65,25.97c-33.6-28.45-63.64-49.24-107.08-61.86l-.08,55.56-30.03-.69c-20.97-17.5-40.81-31.86-66.93-47.74Z"/>
    <path class="st0" d="M598.78,380.65l12.15,31.79c-11.92,4-21.57,7.36-32.13,12.61,11.64,49.87,19.28,105.11,25.54,155.69l-26.07,10.67c-38.89-29.02-82-51.52-127.39-66.29l-.27,67.67c-11.54.45-20.39.42-31.79-.28l-.03-212.28,31.81-1.11.39,107.78c41.31,15.71,77.79,34.55,115.56,57.39l-18.64-106.57c-13.34,6.33-44.74,21.63-56.96,29.24l-13.61-30.3c39.18-21.67,77.98-41.02,121.43-56.02Z"/>
    <path class="st0" d="M976.6,569.23c-6.42,2.86-10.26,4.48-13.28,6.99,14.75,39.45,26.31,77.78,37.25,117.87l-28.92,9.79c-45.75-26.19-93.3-44.46-144.88-58.51l-.26,59.86-32.47-.57.02-160.75,32.5-.61.22,67.63c45.93,13.37,87.96,29.43,130.35,48.04l-23.39-71.21-40.34,22.86-15.44-27.94c25.79-16.77,51.72-29.72,80.46-40.94l18.18,27.5Z"/>
    <path class="st0" d="M1516.84,567.07v-67.83s-46.35-.36-46.35-.36l-.06,79.62-32.23-.25-.05-79.31-32.59-.06-.24-32.06,32.73-.19.18-86.82h32.19s0,86.83,0,86.83l46.32.07.02-73.54,29.95-.07c-.15,37.32-.54,137.93-.06,173.8l-29.82.17Z"/>
    <path class="st0" d="M1542.38,680.23c2.35,5.51,3.86,10.45,6.05,17.52l-30.09,10.94c-9.7-29.59-19.87-54.81-32.58-83.33l-81.37-.26-.18-32.26h158.46s.12,32.18.12,32.18l-43.74.56,23.34,54.65Z"/>
    <rect class="st0" x="337.09" y="392.41" width="31.78" height="189.51"/>
    <rect class="st0" x="697.17" y="557.31" width="31.31" height="134.75" transform="translate(-.7 .8) rotate(-.06)"/>
    <path class="st0" d="M347.6,692.46l-23.35-20.57c10.42-23.61,31.15-43.75,49.82-60.57l21.3,24.58c-17.27,17.22-32.1,34.38-47.77,56.56Z"/>
    <path class="st0" d="M1425.85,701.52l-17.53-25.46c19.91-14.54,37.51-25.96,59.53-38.7l17.84,24.66-59.83,39.49Z"/>
    <path class="st0" d="M1254.35,648.95v-41.97l80.26.07c3.29,0,9.25,4.96,9,8.71l-1.87,28.57,31.69-10.86c2-22.69,4.77-61.34-28.02-59.78l-292.46.02.05,108.44c74.05,2.84,237.76-10.83,305.36,23.4l18.12-29.54c-39.05-17.88-80.14-24.1-122.14-27.05ZM1086.17,607.03l46.94-.16v41.35l-46.96-.17v-41.01ZM1169.29,648.03v-40.97l48.88.05v41.04l-48.88-.12Z"/>
  </g>
</svg>