<?xml version="1.0" encoding="UTF-8"?>
<svg id="Livello_1" data-name="Livello 1" xmlns="http://www.w3.org/2000/svg" viewBox="0 0 841.89 595.28">
  <g>
    <path d="M192.59,221.88c0,2.64-.66,5.11-1.98,7.4-1.32,2.29-3.13,4.09-5.42,5.41-2.29,1.32-4.76,1.98-7.41,1.98s-5.11-.66-7.4-1.98c-2.29-1.32-4.1-3.13-5.42-5.41-1.32-2.29-1.98-4.75-1.98-7.4s.66-5.08,1.98-7.37c1.32-2.28,3.13-4.08,5.41-5.4,2.29-1.32,4.76-1.98,7.41-1.98s5.13.66,7.41,1.98,4.09,3.12,5.41,5.4c1.32,2.28,1.98,4.74,1.98,7.37ZM189.53,221.94c0-3.26-1.14-6.04-3.43-8.32-2.29-2.29-5.06-3.43-8.3-3.43-2.11,0-4.08.52-5.91,1.57-1.82,1.04-3.26,2.47-4.3,4.28-1.04,1.81-1.57,3.75-1.57,5.83s.52,4.01,1.57,5.81c1.04,1.8,2.48,3.22,4.3,4.26,1.82,1.04,3.78,1.57,5.87,1.57s4.07-.52,5.9-1.57c1.83-1.04,3.27-2.46,4.31-4.24,1.04-1.79,1.57-3.7,1.57-5.75ZM182.05,224.61h3.4c-.22,1.69-.98,3.08-2.28,4.18-1.3,1.1-2.9,1.64-4.79,1.64-2.42,0-4.41-.81-5.96-2.45-1.55-1.63-2.33-3.75-2.33-6.35s.77-4.58,2.3-6.15c1.53-1.57,3.49-2.36,5.87-2.36,1.92,0,3.49.48,4.73,1.45s2.05,2.37,2.45,4.21h-3.4c-.22-.95-.66-1.69-1.31-2.2s-1.47-.77-2.43-.77c-1.43,0-2.6.52-3.53,1.56s-1.39,2.45-1.39,4.22.49,3.31,1.48,4.44,2.16,1.69,3.52,1.69c.96,0,1.79-.29,2.47-.87s1.08-1.33,1.2-2.24Z"/>
    <path d="M217.59,218.55l-5.51,5.18h-9.51l-3.98,3.75v7.21h18.68v2.42h-21.25v-10.63l5.53-5.18h9.49l3.98-3.77v-3.46l-3.98-3.75h-8.47l-5.03,4.78-1.86-1.74,5.86-5.47h10.54l5.51,5.2v5.47Z"/>
    <path d="M241.58,231.95l-5.53,5.16h-5.76l-5.53-5.16v-18.87l5.53-5.2h5.76l5.53,5.2v18.87ZM239.01,230.97v-16.9l-3.98-3.75h-3.71l-3.98,3.75v16.9l3.96,3.73h3.75l3.96-3.73Z"/>
    <path d="M275.09,218.55l-5.51,5.18h-9.51l-3.98,3.75v7.21h18.68v2.42h-21.25v-10.63l5.53-5.18h9.49l3.98-3.77v-3.46l-3.98-3.75h-8.47l-5.03,4.78-1.86-1.74,5.86-5.47h10.54l5.51,5.2v5.47Z"/>
    <path d="M303.84,231.95l-5.53,5.16h-10.52l-5.53-5.16v-14.42l10.29-9.65h6.21v2.44h-5.18l-8.74,8.24v2.75h13.48l5.53,5.18v5.47ZM301.27,230.97v-3.48l-3.98-3.75h-12.45v7.23l3.96,3.73h8.49l3.98-3.73Z"/>
    <path d="M257.17,262.68v43.89h-16.17v-39.27l-2.31-2.31h-16.17l-2.31,2.31v39.27h-16.17v-39.27l-2.31-2.31h-16.17l-2.31,2.31v39.27h-16.17v-43.89l11.55-11.55h25.41l8.08,8.08,8.08-8.08h25.41l11.55,11.55Z"/>
    <path d="M336.73,262.68v43.89h-16.17v-13.86h-39.27v13.86h-16.17v-43.89l11.55-11.55h48.51l11.55,11.55ZM320.56,278.85v-11.55l-2.31-2.31h-34.65l-2.31,2.31v11.55h39.27Z"/>
    <path d="M416.24,278.85l-8.08,8.08,8.08,8.08v11.55h-16.17v-11.55l-2.31-2.31h-36.96v13.86h-16.17v-55.44h60.05l11.55,11.55v16.17ZM360.8,278.85h36.96l2.31-2.31v-9.24l-2.31-2.31h-36.96v13.86Z"/>
    <path d="M440.31,288.09v4.62h50.82v13.86h-66.98v-23.1l11.55-11.55h36.96l2.31-2.31v-4.62h-50.82v-13.86h66.98v23.1l-11.55,11.55h-36.96l-2.31,2.31Z"/>
    <path d="M572.97,262.68v32.34l-11.55,11.55h-50.82l-11.55-11.55v-32.34l11.55-11.55h50.82l11.55,11.55ZM556.81,267.3l-2.31-2.31h-36.96l-2.31,2.31v23.1l2.31,2.31h36.96l2.31-2.31v-23.1Z"/>
    <path d="M238.69,348.91l-8.08,8.08,8.08,8.08v11.55h-16.17v-11.55l-2.31-2.31h-36.96v13.86h-16.17v-55.44h60.06l11.55,11.55v16.17ZM183.25,348.91h36.96l2.31-2.31v-9.24l-2.31-2.31h-36.96v13.86Z"/>
    <path d="M262.76,337.36v4.62h43.89v13.86h-43.89v4.62l2.31,2.31h48.51v13.86h-55.44l-11.55-11.55v-32.34l11.55-11.55h55.44v13.86h-48.51l-2.31,2.31Z"/>
    <path d="M386.18,362.77v13.86h-53.12l-11.55-11.55v-43.89h16.17v39.27l2.31,2.31h46.2Z"/>
    <path d="M410.3,337.36v4.62h43.89v13.86h-43.89v4.62l2.31,2.31h48.5v13.86h-55.43l-11.55-11.55v-32.34l11.55-11.55h55.43v13.86h-48.5l-2.31,2.31Z"/>
    <path d="M538.34,353.53v11.55l-11.55,11.55h-55.44v-13.86h48.51l2.31-2.31v-2.31l-2.31-2.31h-39.27l-11.55-11.55v-11.55l11.55-11.55h55.43v13.86h-48.5l-2.31,2.31v2.31l2.31,2.31h39.27l11.55,11.55Z"/>
    <path d="M562.43,337.36v4.62h43.89v13.86h-43.89v4.62l2.31,2.31h48.5v13.86h-55.43l-11.55-11.55v-32.34l11.55-11.55h55.43v13.86h-48.5l-2.31,2.31Z"/>
    <path d="M621.18,388.15v-11.55h57.75v11.55h-57.75Z"/>
  </g>
  <g>
    <path d="M112.17,149.22v-4.53h3.02v4.53h4.52v3.02h-4.52v4.52h-3.02v-4.52h-4.52v-3.02h4.52Z"/>
    <path d="M112.17,443.04v-4.53h3.02v4.53h4.52v3.02h-4.52v4.52h-3.02v-4.52h-4.52v-3.02h4.52Z"/>
    <path d="M726.7,149.22v-4.53h3.02v4.53h4.52v3.02h-4.52v4.52h-3.02v-4.52h-4.52v-3.02h4.52Z"/>
    <path d="M726.7,443.04v-4.53h3.02v4.53h4.52v3.02h-4.52v4.52h-3.02v-4.52h-4.52v-3.02h4.52Z"/>
  </g>
</svg>