<?xml version="1.0" encoding="UTF-8"?>
<svg id="Livello_1" xmlns="http://www.w3.org/2000/svg" version="1.1" viewBox="0 0 1920 1080">
  <!-- Generator: Adobe Illustrator 30.2.1, SVG Export Plug-In . SVG Version: 2.1.1 Build 1)  -->
  <defs>
    <style>
      .st0 {
        fill: red;
      }

      .st1 {
        fill: #fff800;
      }
    </style>
  </defs>
  <g>
    <rect class="st0" x="145.1" y="569.06" width="82.07" height="82.07"/>
    <path class="st0" d="M459.63,638.66c0,3.19,2.6,5.8,5.8,5.8,1.61,0,3.05-.65,4.11-1.69l2.58,2.58c-1.73,1.73-4.07,2.79-6.69,2.79-5.23,0-9.48-4.25-9.48-9.48s4.25-9.46,9.48-9.46c2.62,0,4.96,1.04,6.69,2.77l-2.6,2.58c-1.04-1.04-2.48-1.69-4.09-1.69-3.19,0-5.8,2.6-5.8,5.8Z"/>
    <polygon class="st0" points="481.77 647.82 481.77 639.31 473.55 629.49 478.31 629.49 483.6 635.81 488.91 629.49 493.69 629.49 485.43 639.31 485.43 647.82 481.77 647.82"/>
    <path class="st0" d="M506.67,634.37c0,.79-.18,1.46-.49,2.14,1.77,1.06,2.93,2.99,2.93,5.19,0,3.4-2.75,6.12-6.1,6.12h-7.32v-18.33h6.08c2.71,0,4.9,2.2,4.9,4.88Z"/>
    <polygon class="st0" points="515.3 633.17 515.3 636.81 522.66 636.81 522.66 640.49 515.3 640.49 515.3 644.18 525.1 644.18 525.1 647.82 511.66 647.82 511.66 629.49 525.1 629.49 525.1 633.17 515.3 633.17"/>
    <path class="st0" d="M539.77,642.45l4.11,5.37h-4.64l-3.7-4.88h-3.82v4.88h-3.64v-18.33h9.16c3.72,0,6.73,3.03,6.73,6.73,0,2.81-1.73,5.23-4.19,6.23Z"/>
    <path class="st0" d="M555.81,629.49c3.7,0,6.73,3.03,6.73,6.73s-3.03,6.71-6.73,6.71h-5.49v4.88h-3.66v-18.33h9.16Z"/>
    <path class="st0" d="M568.62,629.49v10.42c0,2.52,2.08,4.56,4.6,4.56s4.6-2.03,4.6-4.56v-10.42h3.66v10.42c0,4.54-3.72,8.24-8.26,8.24s-8.24-3.7-8.24-8.24v-10.42h3.64Z"/>
    <polygon class="st0" points="596.94 641.51 596.94 629.49 600.63 629.49 600.63 647.82 596.94 647.82 588.38 635.81 588.38 647.82 584.74 647.82 584.74 629.49 588.38 629.49 596.94 641.51"/>
    <polygon class="st0" points="264.42 558.24 145.1 558.24 145.1 511.36 602.64 511.36 602.64 558.24 483.3 558.24 380.07 737.03 380.07 646.07 430.79 558.24 316.93 558.24 367.68 646.11 367.68 737.07 318.05 651.13 240.32 651.13 240.32 569.06 270.67 569.06 264.42 558.24"/>
    <polygon class="st0" points="607.52 647.82 603.84 647.82 603.84 629.49 607.52 629.49 607.52 637.48 614.77 629.49 619.73 629.49 611.75 638.26 619.73 647.82 614.97 647.82 609.27 640.98 607.52 642.94 607.52 647.82"/>
    <polygon class="st0" points="741.56 718.03 734.82 718.03 734.82 713.51 741.56 713.51 741.56 706.74 746.07 706.74 746.07 713.51 752.83 713.51 752.83 718.03 746.07 718.03 746.07 724.78 741.56 724.78 741.56 718.03"/>
    <rect class="st0" x="820.62" y="511.36" width="24.15" height=".12"/>
    <rect class="st0" x="875.81" y="511.36" width="24.13" height=".12"/>
    <polygon class="st0" points="844.77 616.1 820.62 616.1 820.62 533.32 910.3 533.32 927.53 550.57 927.53 574.72 915.46 586.78 927.53 598.85 927.53 616.1 903.4 616.1 903.4 598.85 899.94 595.41 844.77 595.41 844.77 616.1"/>
    <rect class="st0" x="930.99" y="511.36" width="24.13" height=".12"/>
    <rect class="st0" x="967.02" y="511.36" width="24.15" height=".12"/>
    <polygon class="st0" points="939.35 550.57 956.6 533.32 1039.37 533.32 1039.37 554.03 966.94 554.03 963.5 557.47 963.5 564.36 1029.03 564.36 1029.03 585.05 963.5 585.05 963.5 591.95 966.94 595.41 1039.37 595.41 1039.37 616.1 956.6 616.1 939.35 598.85 939.35 550.57"/>
    <rect class="st0" x="1049.8" y="511.36" width="24.13" height=".12"/>
    <rect class="st0" x="1085.75" y="511.36" width="24.15" height=".12"/>
    <polygon class="st0" points="1075.36 533.32 1075.36 591.95 1078.81 595.41 1147.78 595.41 1147.78 616.1 1068.46 616.1 1051.23 598.85 1051.23 533.32 1075.36 533.32"/>
    <rect class="st0" x="1168.54" y="511.36" width="24.13" height=".12"/>
    <polygon class="st0" points="1176.92 616.1 1159.67 598.85 1159.67 550.57 1176.92 533.32 1259.68 533.32 1259.68 554.03 1187.25 554.03 1183.82 557.47 1183.82 564.36 1249.33 564.36 1249.33 585.05 1183.82 585.05 1183.82 591.95 1187.25 595.41 1259.68 595.41 1259.68 616.1 1176.92 616.1"/>
    <rect class="st0" x="1204.49" y="511.36" width="100.02" height=".12"/>
    <polygon class="st0" points="1350.87 591.95 1350.87 588.51 1347.41 585.05 1288.78 585.05 1271.54 567.82 1271.54 550.57 1288.78 533.32 1371.56 533.32 1371.56 554.03 1299.13 554.03 1295.67 557.47 1295.67 560.92 1299.13 564.36 1357.77 564.36 1375 581.62 1375 598.85 1357.77 616.1 1274.98 616.1 1274.98 595.41 1347.41 595.41 1350.87 591.95"/>
    <polygon class="st0" points="1333.6 511.49 1333.47 511.36 1409.6 511.36 1409.48 511.49 1333.6 511.49"/>
    <polygon class="st0" points="1410.99 557.47 1410.99 564.36 1476.5 564.36 1476.5 585.05 1410.99 585.05 1410.99 591.95 1414.43 595.41 1486.85 595.41 1486.85 616.1 1404.07 616.1 1386.84 598.85 1386.84 550.57 1404.07 533.32 1486.85 533.32 1486.85 554.03 1414.43 554.03 1410.99 557.47"/>
    <rect class="st0" x="1498.72" y="616.06" width="86.22" height="17.25"/>
    <polygon class="st0" points="1659.24 718.03 1652.48 718.03 1652.48 713.51 1659.24 713.51 1659.24 706.74 1663.73 706.74 1663.73 713.51 1670.49 713.51 1670.49 718.03 1663.73 718.03 1663.73 724.78 1659.24 724.78 1659.24 718.03"/>
    <polygon class="st0" points="1920 627.45 1920 898.2 1864.46 933.44 1669.59 933.44 1622.56 907.26 0 907.26 0 836.95 905.68 836.95 984.78 757.82 1380.35 757.82 1457.03 834.52 1712.93 834.52 1920 627.45"/>
  </g>
  <g>
    <path class="st1" d="M1862.04,229.87H734.54l-82.68-82.66H176.13C78.86,147.21,0,226.07,0,323.34v513.61h905.68l79.1-79.12h395.57l76.68,76.7h255.9l207.07-207.07v-339.6c0-32.02-25.96-57.98-57.96-57.98ZM1652.48,274.75h6.75v-6.77h4.5v6.77h6.75v4.52h-6.75v6.75h-4.5v-6.75h-6.75v-4.52ZM1204.49,477l17.23-17.25h55.2l3.44-3.44v-6.9h-75.87v-20.69h100.02v34.48l-17.25,17.23h-55.18l-3.44,3.46v6.9h75.87v20.69h-100.02v-34.48ZM1085.75,428.72h89.68l17.23,17.23v24.15l-12.06,12.06,12.06,12.06v17.25h-24.13v-.12h-58.63v.12h-24.15v-82.76ZM992.61,378.51l15.36-14.4h9.28v3.64h-7.75l-13.04,12.31v4.09h20.12l8.26,7.75v8.16l-8.26,7.71h-15.71l-8.26-7.71v-21.55ZM957.95,364.11h15.73l8.24,7.77v8.18l-8.24,7.73h-14.2l-5.94,5.59v10.78h27.87v3.6h-31.72v-15.87l8.26-7.75h14.18l5.94-5.64v-5.17l-5.94-5.59h-12.65l-7.51,7.14-2.77-2.6,8.75-8.18ZM906.76,371.88l8.26-7.77h8.59l8.26,7.77v28.18l-8.26,7.71h-8.59l-8.26-7.71v-28.18ZM872.07,364.11h15.75l8.22,7.77v8.18l-8.22,7.73h-14.2l-5.96,5.59v10.78h27.89v3.6h-31.74v-15.87l8.26-7.75h14.18l5.94-5.64v-5.17l-5.94-5.59h-12.63l-7.51,7.14-2.79-2.6,8.75-8.18ZM817.44,374.01c1.97-3.4,4.66-6.1,8.08-8.08,3.42-1.95,7.1-2.95,11.07-2.95s7.67,1,11.09,2.95c3.4,1.97,6.1,4.68,8.08,8.08,1.97,3.42,2.95,7.08,2.95,11.01s-.98,7.63-2.95,11.05c-1.97,3.42-4.68,6.1-8.1,8.08-3.44,1.97-7.12,2.95-11.07,2.95s-7.63-.98-11.05-2.95c-3.44-1.97-6.12-4.66-8.1-8.08-1.97-3.42-2.97-7.1-2.97-11.05s1-7.59,2.97-11.01ZM734.82,274.75h6.73v-6.77h4.52v6.77h6.75v4.52h-6.75v6.75h-4.52v-6.75h-6.73v-4.52ZM532.94,251.74c0-2.48,2.01-4.5,4.5-4.5h60.71c2.48,0,4.5,2.01,4.5,4.5v10.74c0,2.48-2.01,4.5-4.5,4.5h-20.65c-4.01,0-6,4.84-3.17,7.67l27.02,27.02c.83.83,1.3,1.99,1.3,3.17v7.61c0,2.48-2.01,4.5-4.5,4.5h-7.61c-1.18,0-2.32-.47-3.17-1.32l-27-27c-2.85-2.85-7.69-.83-7.69,3.17v20.65c0,2.48-2.01,4.5-4.5,4.5h-10.74c-2.48,0-4.5-2.01-4.5-4.5v-60.71ZM532.94,383.5c0-2.48,2.01-4.5,4.5-4.5h20.65c4.01,0,6.02-4.84,3.17-7.69l-27-27c-.85-.85-1.32-1.99-1.32-3.17v-7.61c0-2.48,2.01-4.5,4.5-4.5h7.61c1.18,0,2.34.47,3.17,1.3l27,27.02c2.85,2.83,7.69.83,7.69-3.17v-20.65c0-2.48,2.01-4.5,4.5-4.5h10.74c2.48,0,4.5,2.01,4.5,4.5v60.71c0,2.48-2.01,4.5-4.5,4.5h-60.71c-2.48,0-4.5-2.01-4.5-4.5v-10.74ZM357.14,247.24l65,.06c18.62.02,33.83,15.28,33.81,33.67l-.18,116.43-24.98,1.32-.81-124.55-72.86-1.38.02-25.55ZM178.67,247.16l116.35-.1c19.39-.02,34.12,15.56,34.04,34.38l-.31,85.47c-.06,16.78-13.04,30.78-31.39,32l-115.4.24c-22.56.06-36.72-13.39-36.76-36.4l-.1-78.1c-.02-19.61,11.6-37.48,33.57-37.5ZM227.17,651.13h-82.07v-82.07h82.07v82.07ZM465.43,644.46c1.61,0,3.05-.65,4.11-1.69l2.58,2.58c-1.73,1.73-4.07,2.79-6.69,2.79-5.23,0-9.48-4.25-9.48-9.48s4.25-9.46,9.48-9.46c2.62,0,4.96,1.04,6.69,2.77l-2.6,2.58c-1.04-1.04-2.48-1.69-4.09-1.69-3.19,0-5.8,2.6-5.8,5.8s2.6,5.8,5.8,5.8ZM485.43,639.31v8.5h-3.66v-8.5l-8.22-9.83h4.76l5.29,6.33,5.31-6.33h4.78l-8.26,9.83ZM503.01,647.82h-7.32v-18.33h6.08c2.71,0,4.9,2.2,4.9,4.88,0,.79-.18,1.46-.49,2.14,1.77,1.06,2.93,2.99,2.93,5.19,0,3.4-2.75,6.12-6.1,6.12ZM525.1,633.17h-9.81v3.64h7.36v3.68h-7.36v3.68h9.81v3.64h-13.45v-18.33h13.45v3.68ZM543.88,647.82h-4.64l-3.7-4.88h-3.82v4.88h-3.64v-18.33h9.16c3.72,0,6.73,3.03,6.73,6.73,0,2.81-1.73,5.23-4.19,6.23l4.11,5.37ZM555.81,642.94h-5.49v4.88h-3.66v-18.33h9.16c3.7,0,6.73,3.03,6.73,6.73s-3.03,6.71-6.73,6.71ZM581.48,639.9c0,4.54-3.72,8.24-8.26,8.24s-8.24-3.7-8.24-8.24v-10.42h3.64v10.42c0,2.52,2.08,4.56,4.6,4.56s4.6-2.03,4.6-4.56v-10.42h3.66v10.42ZM600.63,647.82h-3.68l-8.57-12v12h-3.64v-18.33h3.64l8.57,12.02v-12.02h3.68v18.33ZM602.64,558.24h-119.34l-103.23,178.79v-90.96l50.72-87.83h-113.85l50.74,87.87v90.96l-49.62-85.94h-77.74v-82.07h30.35l-6.25-10.82h-119.32v-108.22h56.84l-13.12-22.75h370.1l-13.12,22.75h56.84v108.22ZM619.73,647.82h-4.76l-5.7-6.84-1.75,1.95v4.88h-3.68v-18.33h3.68v8l7.24-8h4.96l-7.98,8.77,7.98,9.56ZM752.83,718.03h-6.75v6.75h-4.52v-6.75h-6.73v-4.52h6.73v-6.77h4.52v6.77h6.75v4.52ZM927.53,574.72l-12.06,12.06,12.06,12.06v17.25h-24.13v-17.25l-3.46-3.44h-55.18v20.69h-24.15v-82.78h89.68l17.23,17.25v24.15ZM899.94,511.36v.12h-24.13v-.12h-31.05v.12h-24.15v-65.53l17.25-17.23h37.94l12.06,12.06,12.06-12.06h37.94l17.23,17.23v65.53h-24.13v-.12h-31.05ZM1039.37,554.03h-72.43l-3.44,3.44v6.9h65.53v20.69h-65.53v6.9l3.44,3.46h72.43v20.69h-82.76l-17.25-17.25v-48.28l17.25-17.25h82.76v20.71ZM991.17,511.36v.12h-24.15v-65.53l17.25-17.23h72.43l17.23,17.23v65.53h-24.13v-.12h-58.63ZM1147.78,616.1h-79.33l-17.23-17.25v-65.53h24.13v58.63l3.46,3.46h68.97v20.69ZM1259.68,554.03h-72.43l-3.44,3.44v6.9h65.51v20.69h-65.51v6.9l3.44,3.46h72.43v20.69h-82.76l-17.25-17.25v-48.28l17.25-17.25h82.76v20.71ZM1375,598.85l-17.23,17.25h-82.78v-20.69h72.43l3.46-3.46v-3.44l-3.46-3.46h-58.63l-17.23-17.23v-17.25l17.23-17.25h82.78v20.71h-72.43l-3.46,3.44v3.46l3.46,3.44h58.63l17.23,17.25v17.23ZM1486.85,554.03h-72.43l-3.44,3.44v6.9h65.51v20.69h-65.51v6.9l3.44,3.46h72.43v20.69h-82.78l-17.23-17.25v-48.28l17.23-17.25h82.78v20.71ZM1584.94,633.31h-86.22v-17.25h86.22v17.25ZM1670.49,718.03h-6.75v6.75h-4.5v-6.75h-6.75v-4.52h6.75v-6.77h4.5v6.77h6.75v4.52ZM1409.48,511.49h-75.89l-.12-.12-17.11-17.13v-48.28l17.23-17.23h75.89l17.23,17.23v48.28l-17.11,17.13-.12.12Z"/>
    <rect class="st1" x="145.1" y="569.06" width="82.07" height="82.07"/>
    <path class="st1" d="M145.2,362.76l-.1-78.1c-.02-19.61,11.6-37.48,33.57-37.5l116.35-.1c19.39-.02,34.12,15.56,34.04,34.38l-.31,85.47c-.06,16.78-13.04,30.78-31.39,32l-115.4.24c-22.56.06-36.72-13.39-36.76-36.4Z"/>
    <path class="st1" d="M429.97,274.18l-72.86-1.38.02-25.55,65,.06c18.62.02,33.83,15.28,33.81,33.67l-.18,116.43-24.98,1.32-.81-124.55Z"/>
    <path class="st1" d="M459.63,638.66c0,3.19,2.6,5.8,5.8,5.8,1.61,0,3.05-.65,4.11-1.69l2.58,2.58c-1.73,1.73-4.07,2.79-6.69,2.79-5.23,0-9.48-4.25-9.48-9.48s4.25-9.46,9.48-9.46c2.62,0,4.96,1.04,6.69,2.77l-2.6,2.58c-1.04-1.04-2.48-1.69-4.09-1.69-3.19,0-5.8,2.6-5.8,5.8Z"/>
    <polygon class="st1" points="488.91 629.49 493.69 629.49 485.43 639.31 485.43 647.82 481.77 647.82 481.77 639.31 473.55 629.49 478.31 629.49 483.6 635.81 488.91 629.49"/>
    <path class="st1" d="M509.11,641.69c0,3.4-2.75,6.12-6.1,6.12h-7.32v-18.33h6.08c2.71,0,4.9,2.2,4.9,4.88,0,.79-.18,1.46-.49,2.14,1.77,1.06,2.93,2.99,2.93,5.19Z"/>
    <polygon class="st1" points="525.1 629.49 525.1 633.17 515.3 633.17 515.3 636.81 522.66 636.81 522.66 640.49 515.3 640.49 515.3 644.18 525.1 644.18 525.1 647.82 511.66 647.82 511.66 629.49 525.1 629.49"/>
    <path class="st1" d="M539.77,642.45l4.11,5.37h-4.64l-3.7-4.88h-3.82v4.88h-3.64v-18.33h9.16c3.72,0,6.73,3.03,6.73,6.73,0,2.81-1.73,5.23-4.19,6.23Z"/>
    <path class="st1" d="M562.54,636.22c0,3.7-3.03,6.71-6.73,6.71h-5.49v4.88h-3.66v-18.33h9.16c3.7,0,6.73,3.03,6.73,6.73Z"/>
    <path class="st1" d="M577.82,629.49h3.66v10.42c0,4.54-3.72,8.24-8.26,8.24s-8.24-3.7-8.24-8.24v-10.42h3.64v10.42c0,2.52,2.08,4.56,4.6,4.56s4.6-2.03,4.6-4.56v-10.42Z"/>
    <polygon class="st1" points="596.94 629.49 600.63 629.49 600.63 647.82 596.94 647.82 588.38 635.81 588.38 647.82 584.74 647.82 584.74 629.49 588.38 629.49 596.94 641.51 596.94 629.49"/>
    <path class="st1" d="M602.64,251.74v10.74c0,2.48-2.01,4.5-4.5,4.5h-20.65c-4.01,0-6,4.84-3.17,7.67l27.02,27.02c.83.83,1.3,1.99,1.3,3.17v7.61c0,2.48-2.01,4.5-4.5,4.5h-7.61c-1.18,0-2.32-.47-3.17-1.32l-27-27c-2.85-2.85-7.69-.83-7.69,3.17v20.65c0,2.48-2.01,4.5-4.5,4.5h-10.74c-2.48,0-4.5-2.01-4.5-4.5v-60.71c0-2.48,2.01-4.5,4.5-4.5h60.71c2.48,0,4.5,2.01,4.5,4.5Z"/>
    <path class="st1" d="M602.64,333.53v60.71c0,2.48-2.01,4.5-4.5,4.5h-60.71c-2.48,0-4.5-2.01-4.5-4.5v-10.74c0-2.48,2.01-4.5,4.5-4.5h20.65c4.01,0,6.02-4.84,3.17-7.69l-27-27c-.85-.85-1.32-1.99-1.32-3.17v-7.61c0-2.48,2.01-4.5,4.5-4.5h7.61c1.18,0,2.34.47,3.17,1.3l27,27.02c2.85,2.83,7.69.83,7.69-3.17v-20.65c0-2.48,2.01-4.5,4.5-4.5h10.74c2.48,0,4.5,2.01,4.5,4.5Z"/>
    <polygon class="st1" points="545.8 450.02 602.64 450.02 602.64 558.24 483.3 558.24 380.07 737.03 380.07 646.07 430.79 558.24 316.93 558.24 367.68 646.11 367.68 737.07 318.05 651.13 240.32 651.13 240.32 569.06 270.67 569.06 264.42 558.24 145.1 558.24 145.1 450.02 201.94 450.02 188.82 427.28 558.92 427.28 545.8 450.02"/>
    <polygon class="st1" points="619.73 629.49 611.75 638.26 619.73 647.82 614.97 647.82 609.27 640.98 607.52 642.94 607.52 647.82 603.84 647.82 603.84 629.49 607.52 629.49 607.52 637.48 614.77 629.49 619.73 629.49"/>
    <polygon class="st1" points="746.07 274.75 752.83 274.75 752.83 279.27 746.07 279.27 746.07 286.02 741.56 286.02 741.56 279.27 734.82 279.27 734.82 274.75 741.56 274.75 741.56 267.98 746.07 267.98 746.07 274.75"/>
    <polygon class="st1" points="746.07 713.51 752.83 713.51 752.83 718.03 746.07 718.03 746.07 724.78 741.56 724.78 741.56 718.03 734.82 718.03 734.82 713.51 741.56 713.51 741.56 706.74 746.07 706.74 746.07 713.51"/>
    <path class="st1" d="M817.44,396.07c-1.97-3.42-2.97-7.1-2.97-11.05s1-7.59,2.97-11.01c1.97-3.4,4.66-6.1,8.08-8.08,3.42-1.95,7.1-2.95,11.07-2.95s7.67,1,11.09,2.95c3.4,1.97,6.1,4.68,8.08,8.08,1.97,3.42,2.95,7.08,2.95,11.01s-.98,7.63-2.95,11.05c-1.97,3.42-4.68,6.1-8.1,8.08-3.44,1.97-7.12,2.95-11.07,2.95s-7.63-.98-11.05-2.95c-3.44-1.97-6.12-4.66-8.1-8.08Z"/>
    <polygon class="st1" points="866.11 374.89 863.32 372.29 872.07 364.11 887.82 364.11 896.04 371.88 896.04 380.06 887.82 387.79 873.62 387.79 867.65 393.38 867.65 404.17 895.55 404.17 895.55 407.77 863.81 407.77 863.81 391.9 872.07 384.15 886.25 384.15 892.19 378.51 892.19 373.34 886.25 367.75 873.62 367.75 866.11 374.89"/>
    <polygon class="st1" points="910.3 533.32 927.53 550.57 927.53 574.72 915.46 586.78 927.53 598.85 927.53 616.1 903.4 616.1 903.4 598.85 899.94 595.41 844.77 595.41 844.77 616.1 820.62 616.1 820.62 533.32 910.3 533.32"/>
    <polygon class="st1" points="915.02 407.77 906.76 400.06 906.76 371.88 915.02 364.11 923.6 364.11 931.86 371.88 931.86 400.06 923.6 407.77 915.02 407.77"/>
    <polygon class="st1" points="930.99 511.49 930.99 511.36 899.94 511.36 899.94 511.49 875.81 511.49 875.81 511.36 844.77 511.36 844.77 511.49 820.62 511.49 820.62 445.95 837.87 428.72 875.81 428.72 887.88 440.79 899.94 428.72 937.89 428.72 955.12 445.95 955.12 511.49 930.99 511.49"/>
    <polygon class="st1" points="951.96 374.89 949.2 372.29 957.95 364.11 973.67 364.11 981.91 371.88 981.91 380.06 973.67 387.79 959.47 387.79 953.53 393.38 953.53 404.17 981.4 404.17 981.4 407.77 949.69 407.77 949.69 391.9 957.95 384.15 972.13 384.15 978.07 378.51 978.07 373.34 972.13 367.75 959.47 367.75 951.96 374.89"/>
    <polygon class="st1" points="1000.87 407.77 992.61 400.06 992.61 378.51 1007.97 364.11 1017.25 364.11 1017.25 367.75 1009.5 367.75 996.46 380.06 996.46 384.15 1016.58 384.15 1024.84 391.9 1024.84 400.06 1016.58 407.77 1000.87 407.77"/>
    <polygon class="st1" points="956.6 533.32 1039.37 533.32 1039.37 554.03 966.94 554.03 963.5 557.47 963.5 564.36 1029.03 564.36 1029.03 585.05 963.5 585.05 963.5 591.95 966.94 595.41 1039.37 595.41 1039.37 616.1 956.6 616.1 939.35 598.85 939.35 550.57 956.6 533.32"/>
    <polygon class="st1" points="1049.8 511.49 1049.8 511.36 991.17 511.36 991.17 511.49 967.02 511.49 967.02 445.95 984.27 428.72 1056.7 428.72 1073.93 445.95 1073.93 511.49 1049.8 511.49"/>
    <polygon class="st1" points="1109.9 511.49 1085.75 511.49 1085.75 428.72 1175.43 428.72 1192.67 445.95 1192.67 470.1 1180.6 482.17 1192.67 494.23 1192.67 511.49 1168.54 511.49 1168.54 511.36 1109.9 511.36 1109.9 511.49"/>
    <polygon class="st1" points="1078.81 595.41 1147.78 595.41 1147.78 616.1 1068.46 616.1 1051.23 598.85 1051.23 533.32 1075.36 533.32 1075.36 591.95 1078.81 595.41"/>
    <polygon class="st1" points="1176.92 533.32 1259.68 533.32 1259.68 554.03 1187.25 554.03 1183.82 557.47 1183.82 564.36 1249.33 564.36 1249.33 585.05 1183.82 585.05 1183.82 591.95 1187.25 595.41 1259.68 595.41 1259.68 616.1 1176.92 616.1 1159.67 598.85 1159.67 550.57 1176.92 533.32"/>
    <polygon class="st1" points="1304.5 511.49 1204.49 511.49 1204.49 477 1221.72 459.75 1276.91 459.75 1280.35 456.31 1280.35 449.41 1204.49 449.41 1204.49 428.72 1304.5 428.72 1304.5 463.21 1287.25 480.44 1232.07 480.44 1228.64 483.9 1228.64 490.8 1304.5 490.8 1304.5 511.49"/>
    <polygon class="st1" points="1357.77 564.36 1375 581.62 1375 598.85 1357.77 616.1 1274.98 616.1 1274.98 595.41 1347.41 595.41 1350.87 591.95 1350.87 588.51 1347.41 585.05 1288.78 585.05 1271.54 567.82 1271.54 550.57 1288.78 533.32 1371.56 533.32 1371.56 554.03 1299.13 554.03 1295.67 557.47 1295.67 560.92 1299.13 564.36 1357.77 564.36"/>
    <polygon class="st1" points="1333.47 511.36 1316.36 494.23 1316.36 445.95 1333.6 428.72 1409.48 428.72 1426.71 445.95 1426.71 494.23 1409.6 511.36 1409.48 511.49 1333.6 511.49 1333.47 511.36"/>
    <polygon class="st1" points="1404.07 533.32 1486.85 533.32 1486.85 554.03 1414.43 554.03 1410.99 557.47 1410.99 564.36 1476.5 564.36 1476.5 585.05 1410.99 585.05 1410.99 591.95 1414.43 595.41 1486.85 595.41 1486.85 616.1 1404.07 616.1 1386.84 598.85 1386.84 550.57 1404.07 533.32"/>
    <rect class="st1" x="1498.72" y="616.06" width="86.22" height="17.25"/>
    <polygon class="st1" points="1670.49 274.75 1670.49 279.27 1663.73 279.27 1663.73 286.02 1659.24 286.02 1659.24 279.27 1652.48 279.27 1652.48 274.75 1659.24 274.75 1659.24 267.98 1663.73 267.98 1663.73 274.75 1670.49 274.75"/>
    <polygon class="st1" points="1663.73 713.51 1670.49 713.51 1670.49 718.03 1663.73 718.03 1663.73 724.78 1659.24 724.78 1659.24 718.03 1652.48 718.03 1652.48 713.51 1659.24 713.51 1659.24 706.74 1663.73 706.74 1663.73 713.51"/>
  </g>
  <g>
    <path d="M841.19,392.43c-1.02.87-2.24,1.3-3.68,1.3-2.03,0-3.78-.83-5.27-2.52-1.46-1.69-2.2-3.89-2.2-6.63s.69-4.74,2.08-6.31c1.38-1.55,3.13-2.32,5.27-2.32,1.44,0,2.67.39,3.64,1.16.98.77,1.63,1.87,1.95,3.3h5.09c-.61-2.77-1.83-4.86-3.66-6.31-1.85-1.44-4.21-2.16-7.08-2.16-3.54,0-6.47,1.18-8.75,3.52-2.3,2.34-3.44,5.41-3.44,9.18s1.16,7.06,3.48,9.5c2.32,2.42,5.27,3.64,8.89,3.64,2.83,0,5.21-.81,7.14-2.46,1.95-1.63,3.09-3.7,3.42-6.23h-5.09c-.18,1.36-.77,2.48-1.79,3.34ZM841.19,392.43c-1.02.87-2.24,1.3-3.68,1.3-2.03,0-3.78-.83-5.27-2.52-1.46-1.69-2.2-3.89-2.2-6.63s.69-4.74,2.08-6.31c1.38-1.55,3.13-2.32,5.27-2.32,1.44,0,2.67.39,3.64,1.16.98.77,1.63,1.87,1.95,3.3h5.09c-.61-2.77-1.83-4.86-3.66-6.31-1.85-1.44-4.21-2.16-7.08-2.16-3.54,0-6.47,1.18-8.75,3.52-2.3,2.34-3.44,5.41-3.44,9.18s1.16,7.06,3.48,9.5c2.32,2.42,5.27,3.64,8.89,3.64,2.83,0,5.21-.81,7.14-2.46,1.95-1.63,3.09-3.7,3.42-6.23h-5.09c-.18,1.36-.77,2.48-1.79,3.34ZM855.75,374.01c-1.97-3.4-4.68-6.1-8.08-8.08-3.42-1.95-7.12-2.95-11.09-2.95s-7.65,1-11.07,2.95c-3.42,1.97-6.1,4.68-8.08,8.08-1.97,3.42-2.97,7.08-2.97,11.01s1,7.63,2.97,11.05c1.97,3.42,4.66,6.1,8.1,8.08,3.42,1.97,7.1,2.95,11.05,2.95s7.63-.98,11.07-2.95c3.42-1.97,6.12-4.66,8.1-8.08,1.97-3.42,2.95-7.1,2.95-11.05s-.98-7.59-2.95-11.01ZM851.81,393.69c-1.55,2.67-3.7,4.78-6.43,6.35-2.75,1.55-5.68,2.34-8.81,2.34s-6.04-.79-8.77-2.34c-2.73-1.57-4.86-3.68-6.43-6.37-1.55-2.69-2.34-5.57-2.34-8.69s.79-6,2.34-8.69c1.57-2.71,3.7-4.84,6.43-6.41,2.73-1.55,5.68-2.34,8.83-2.34,4.84,0,8.97,1.71,12.39,5.13,3.42,3.42,5.13,7.57,5.13,12.43,0,3.05-.77,5.92-2.34,8.59ZM837.38,375.95c1.44,0,2.67.39,3.64,1.16.98.77,1.63,1.87,1.95,3.3h5.09c-.61-2.77-1.83-4.86-3.66-6.31-1.85-1.44-4.21-2.16-7.08-2.16-3.54,0-6.47,1.18-8.75,3.52-2.3,2.34-3.44,5.41-3.44,9.18s1.16,7.06,3.48,9.5c2.32,2.42,5.27,3.64,8.89,3.64,2.83,0,5.21-.81,7.14-2.46,1.95-1.63,3.09-3.7,3.42-6.23h-5.09c-.18,1.36-.77,2.48-1.79,3.34-1.02.87-2.24,1.3-3.68,1.3-2.03,0-3.78-.83-5.27-2.52-1.46-1.69-2.2-3.89-2.2-6.63s.69-4.74,2.08-6.31c1.38-1.55,3.13-2.32,5.27-2.32Z"/>
    <path d="M873.62,387.79h14.2l8.22-7.73v-8.18l-8.22-7.77h-15.75l-8.75,8.18,2.79,2.6,7.51-7.14h12.63l5.94,5.59v5.17l-5.94,5.64h-14.18l-8.26,7.75v15.87h31.74v-3.6h-27.89v-10.78l5.96-5.59Z"/>
    <path d="M923.6,364.11h-8.59l-8.26,7.77v28.18l8.26,7.71h8.59l8.26-7.71v-28.18l-8.26-7.77ZM928.04,398.59l-5.92,5.57h-5.62l-5.9-5.57v-25.25l5.94-5.59h5.53l5.96,5.59v25.25Z"/>
    <path d="M959.47,387.79h14.2l8.24-7.73v-8.18l-8.24-7.77h-15.73l-8.75,8.18,2.77,2.6,7.51-7.14h12.65l5.94,5.59v5.17l-5.94,5.64h-14.18l-8.26,7.75v15.87h31.72v-3.6h-27.87v-10.78l5.94-5.59Z"/>
    <path d="M1016.58,384.15h-20.12v-4.09l13.04-12.31h7.75v-3.64h-9.28l-15.36,14.4v21.55l8.26,7.71h15.71l8.26-7.71v-8.16l-8.26-7.75ZM1020.99,398.59l-5.94,5.57h-12.68l-5.92-5.57v-10.8h18.6l5.94,5.59v5.21Z"/>
    <path d="M937.89,428.72h-37.94l-12.06,12.06-12.06-12.06h-37.94l-17.25,17.23v65.53h24.15v-58.63l3.44-3.44h24.15l3.46,3.44v58.63h24.13v-58.63l3.46-3.44h24.13l3.46,3.44v58.63h24.13v-65.53l-17.23-17.23Z"/>
    <path d="M1056.7,428.72h-72.43l-17.25,17.23v65.53h24.15v-20.69h58.63v20.69h24.13v-65.53l-17.23-17.23ZM991.17,470.1v-17.25l3.44-3.44h51.74l3.46,3.44v17.25h-58.63Z"/>
    <path d="M1192.67,445.95l-17.23-17.23h-89.68v82.76h24.15v-20.69h55.18l3.46,3.44v17.25h24.13v-17.25l-12.06-12.06,12.06-12.06v-24.15ZM1165.08,470.1h-55.18v-20.69h55.18l3.46,3.44v13.79l-3.46,3.46Z"/>
    <path d="M1232.07,480.44h55.18l17.25-17.23v-34.48h-100.02v20.69h75.87v6.9l-3.44,3.44h-55.2l-17.23,17.25v34.48h100.02v-20.69h-75.87v-6.9l3.44-3.46Z"/>
    <path d="M1409.48,428.72h-75.89l-17.23,17.23v48.28l17.11,17.13.12.12h75.89l.12-.12,17.11-17.13v-48.28l-17.23-17.23ZM1340.49,452.85l3.46-3.44h55.18l3.46,3.44v34.48l-3.46,3.46h-55.18l-3.46-3.46v-34.48Z"/>
    <path d="M927.53,550.57l-17.23-17.25h-89.68v82.78h24.15v-20.69h55.18l3.46,3.44v17.25h24.13v-17.25l-12.06-12.06,12.06-12.06v-24.15ZM903.4,571.26l-3.46,3.46h-55.18v-20.69h55.18l3.46,3.44v13.79Z"/>
    <path d="M966.94,554.03h72.43v-20.71h-82.76l-17.25,17.25v48.28l17.25,17.25h82.76v-20.69h-72.43l-3.44-3.46v-6.9h65.53v-20.69h-65.53v-6.9l3.44-3.44Z"/>
    <path d="M1078.81,595.41l-3.46-3.46v-58.63h-24.13v65.53l17.23,17.25h79.33v-20.69h-68.97Z"/>
    <path d="M1187.25,554.03h72.43v-20.71h-82.76l-17.25,17.25v48.28l17.25,17.25h82.76v-20.69h-72.43l-3.44-3.46v-6.9h65.51v-20.69h-65.51v-6.9l3.44-3.44Z"/>
    <path d="M1357.77,564.36h-58.63l-3.46-3.44v-3.46l3.46-3.44h72.43v-20.71h-82.78l-17.23,17.25v17.25l17.23,17.23h58.63l3.46,3.46v3.44l-3.46,3.46h-72.43v20.69h82.78l17.23-17.25v-17.23l-17.23-17.25Z"/>
    <path d="M1414.43,554.03h72.43v-20.71h-82.78l-17.23,17.25v48.28l17.23,17.25h82.78v-20.69h-72.43l-3.44-3.46v-6.9h65.51v-20.69h-65.51v-6.9l3.44-3.44Z"/>
    <path d="M1498.72,616.06v17.25h86.22v-17.25h-86.22Z"/>
  </g>
  <path d="M746.07,274.75v-6.77h-4.52v6.77h-6.73v4.52h6.73v6.75h4.52v-6.75h6.75v-4.52h-6.75Z"/>
  <path d="M746.07,713.51v-6.77h-4.52v6.77h-6.73v4.52h6.73v6.75h4.52v-6.75h6.75v-4.52h-6.75Z"/>
  <path d="M1663.73,274.75v-6.77h-4.5v6.77h-6.75v4.52h6.75v6.75h4.5v-6.75h6.75v-4.52h-6.75Z"/>
  <path d="M1663.73,713.51v-6.77h-4.5v6.77h-6.75v4.52h6.75v6.75h4.5v-6.75h6.75v-4.52h-6.75Z"/>
  <path d="M545.8,450.02l13.12-22.75H188.82l13.12,22.75h-56.84v108.22h119.32l6.25,10.82h-30.35v82.07h77.74l49.62,85.94v-90.96l-50.74-87.87h113.85l-50.72,87.83v90.96l103.23-178.79h119.34v-108.22h-56.84ZM187.7,540.76h-26.94v-73.4h26.94c20.24,0,36.7,16.46,36.7,36.7,0,2.5-.24,4.94-.73,7.3-3.4,16.76-18.23,29.4-35.97,29.4ZM246.7,526.18l-.33.81v.02l-5.53,13.75h-15.77l11.76-29.4.2-.53,17.37-43.48h14.63l2.16,5.41,8.2,20.41.08.18,7.22,18.01,11.8,29.4h-15.87l-5.88-14.59h-30.05ZM300.8,596.3l-9.13,9.11-16.15,16.15h25.29v7.95h-38.88v-38.86h7.98v25.29l17.64-17.68,7.61-7.61h5.66v5.64ZM369.95,540.76h-14.71l-20.98-29.4-13.33-18.7v48.1h-14.1l-.53-.94v-72.47h14.63l3.87,5.41,27.53,38.59,2.91,4.09v-48.1h14.71v73.4ZM446.37,540.76h-14.75v-1.14c-4.13,1.49-8.5,2.42-13.22,2.42-18.43,0-33.75-13.2-37.13-30.68-.47-2.36-.71-4.8-.71-7.3,0-13.02,6.55-24.5,16.52-31.29,6.08-4.13,13.41-6.55,21.32-6.55s15.4,2.36,21.44,6.55c1.93,1.3,3.72,2.83,5.37,4.48l-10.36,10.38c-4.13-4.17-10.01-6.8-16.46-6.8-12.76,0-23.25,10.48-23.25,23.23,0,2.54.41,5,1.2,7.3,3.07,9.24,11.84,15.95,22.05,15.95,4.96,0,9.54-1.51,13.22-4.15v-16.68h14.75v34.28ZM511.49,540.76h-53.85v-73.4h53.85v14.73h-39.25v14.61h29.48v14.73h-29.48v14.75h39.25v14.59ZM586.63,540.76h-18.53l-14.85-19.55h-15.28v19.55h-14.61v-73.4h36.7c14.85,0,26.92,12.08,26.92,26.92,0,6.49-2.28,12.43-6.12,17.09-2.81,3.46-6.47,6.18-10.68,7.89l16.46,21.5Z"/>
  <path d="M572.24,494.28c0-6.78-5.53-12.19-12.19-12.19h-22.08v24.38h22.08c6.66,0,12.19-5.39,12.19-12.19Z"/>
  <path d="M187.7,482.09h-12.21v43.96h12.21c12.19,0,21.97-9.78,21.97-21.99s-9.78-21.97-21.97-21.97Z"/>
  <polygon points="252.58 511.43 270.89 511.43 261.68 488.53 252.58 511.43"/>
  <path d="M469.54,642.77l2.58,2.58c-1.73,1.73-4.07,2.79-6.69,2.79-5.23,0-9.48-4.25-9.48-9.48s4.25-9.46,9.48-9.46c2.62,0,4.96,1.04,6.69,2.77l-2.6,2.58c-1.04-1.04-2.48-1.69-4.09-1.69-3.19,0-5.8,2.6-5.8,5.8s2.6,5.8,5.8,5.8c1.61,0,3.05-.65,4.11-1.69Z"/>
  <polygon points="493.69 629.49 485.43 639.31 485.43 647.82 481.77 647.82 481.77 639.31 473.55 629.49 478.31 629.49 483.6 635.81 488.91 629.49 493.69 629.49"/>
  <path d="M506.18,636.51c.31-.67.49-1.34.49-2.14,0-2.69-2.2-4.88-4.9-4.88h-6.08v18.33h7.32c3.36,0,6.1-2.73,6.1-6.12,0-2.2-1.16-4.13-2.93-5.19ZM499.33,633.17h2.44c.69,0,1.24.55,1.24,1.2,0,.69-.55,1.24-1.24,1.24h-2.44v-2.44ZM503.01,644.16h-3.68v-4.88h3.68c1.34,0,2.44,1.08,2.44,2.42s-1.1,2.46-2.44,2.46Z"/>
  <polygon points="515.3 633.17 515.3 636.81 522.66 636.81 522.66 640.49 515.3 640.49 515.3 644.18 525.1 644.18 525.1 647.82 511.66 647.82 511.66 629.49 525.1 629.49 525.1 633.17 515.3 633.17"/>
  <path d="M543.96,636.22c0-3.7-3.01-6.73-6.73-6.73h-9.16v18.33h3.64v-4.88h3.82l3.7,4.88h4.64l-4.11-5.37c2.46-1,4.19-3.42,4.19-6.23ZM537.23,639.27h-5.51v-6.1h5.51c1.67,0,3.05,1.34,3.05,3.05s-1.38,3.05-3.05,3.05Z"/>
  <path d="M555.81,629.49h-9.16v18.33h3.66v-4.88h5.49c3.7,0,6.73-3.01,6.73-6.71s-3.03-6.73-6.73-6.73ZM555.81,639.27h-5.49v-6.1h5.49c1.69,0,3.05,1.34,3.05,3.05s-1.36,3.05-3.05,3.05Z"/>
  <path d="M581.48,629.49v10.42c0,4.54-3.72,8.24-8.26,8.24s-8.24-3.7-8.24-8.24v-10.42h3.64v10.42c0,2.52,2.08,4.56,4.6,4.56s4.6-2.03,4.6-4.56v-10.42h3.66Z"/>
  <polygon points="600.63 629.49 600.63 647.82 596.94 647.82 588.38 635.81 588.38 647.82 584.74 647.82 584.74 629.49 588.38 629.49 596.94 641.51 596.94 629.49 600.63 629.49"/>
  <polygon points="611.75 638.26 619.73 647.82 614.97 647.82 609.27 640.98 607.52 642.94 607.52 647.82 603.84 647.82 603.84 629.49 607.52 629.49 607.52 637.48 614.77 629.49 619.73 629.49 611.75 638.26"/>
  <path d="M145.1,569.06v82.07h82.07v-82.07h-82.07ZM218.06,642.04h-63.86v-63.88h63.86v63.88Z"/>
  <path d="M295.02,247.06l-116.35.1c-21.97.02-33.59,17.88-33.57,37.5l.1,78.1c.04,23.01,14.2,36.46,36.76,36.4l115.4-.24c18.35-1.22,31.33-15.22,31.39-32l.31-85.47c.08-18.82-14.65-34.4-34.04-34.38ZM171.65,373.2l.28-98.31,98.57,97.43-98.86.87ZM300.62,374.58l-102.17-100.81,104.61.04c.39,37.78,1.71,64.76-2.44,100.77Z"/>
  <path d="M455.95,280.98l-.18,116.43-24.98,1.32-.81-124.55-72.86-1.38.02-25.55,65,.06c18.62.02,33.83,15.28,33.81,33.67Z"/>
  <path d="M574.32,274.65l27.02,27.02c.83.83,1.3,1.99,1.3,3.17v7.61c0,2.48-2.01,4.5-4.5,4.5h-7.61c-1.18,0-2.32-.47-3.17-1.32l-27-27c-2.85-2.85-7.69-.83-7.69,3.17v20.65c0,2.48-2.01,4.5-4.5,4.5h-10.74c-2.48,0-4.5-2.01-4.5-4.5v-60.71c0-2.48,2.01-4.5,4.5-4.5h60.71c2.48,0,4.5,2.01,4.5,4.5v10.74c0,2.48-2.01,4.5-4.5,4.5h-20.65c-4.01,0-6,4.84-3.17,7.67Z"/>
  <path d="M602.64,333.53v60.71c0,2.48-2.01,4.5-4.5,4.5h-60.71c-2.48,0-4.5-2.01-4.5-4.5v-10.74c0-2.48,2.01-4.5,4.5-4.5h20.65c4.01,0,6.02-4.84,3.17-7.69l-27-27c-.85-.85-1.32-1.99-1.32-3.17v-7.61c0-2.48,2.01-4.5,4.5-4.5h7.61c1.18,0,2.34.47,3.17,1.3l27,27.02c2.85,2.83,7.69.83,7.69-3.17v-20.65c0-2.48,2.01-4.5,4.5-4.5h10.74c2.48,0,4.5,2.01,4.5,4.5Z"/>
</svg>