<?xml version="1.0" encoding="UTF-8"?>
<svg id="Livello_1" xmlns="http://www.w3.org/2000/svg" version="1.1" viewBox="0 0 1920 1080">
  <!-- Generator: Adobe Illustrator 30.2.1, SVG Export Plug-In . SVG Version: 2.1.1 Build 1)  -->
  <defs>
    <style>
      .st0 {
        fill: red;
      }
    </style>
  </defs>
  <path class="st0" d="M512.72,682.28l-122.99-98.34,194.23-151.68c6.32-4.94,8.72-13.02,6.11-20.61-2.61-7.58-9.48-12.48-17.5-12.48h-94.82c-2.48,0-4.87.9-6.73,2.52l-28.47,24.84-160.68.89-31.6-25.92c-1.83-1.5-4.14-2.33-6.5-2.33h-88.22c-8.28,0-15.43,5.04-18.22,12.84-2.79,7.8-.44,16.23,5.96,21.48l57.9,47.4c1.83,1.49,4.13,2.32,6.49,2.32h.01l157.21-.49-23.51,18.36-141.65-.23h-.03c-8.22,0-15.35,4.98-18.17,12.7-2.83,7.73-.58,16.15,5.72,21.45l112.76,94.79.26,33.15c.02,3.16,1.47,6.07,3.95,8l35.22,27.42c1.79,1.39,4.02,2.16,6.29,2.16h160.57c4.41,0,8.21-2.69,9.67-6.86s.18-8.64-3.27-11.39ZM345.83,690.19l-35.17-27.33-.26-33.15c-.02-3-1.35-5.83-3.65-7.76l-112.81-94.89c-3.55-2.98-3.7-7.1-2.65-9.95,1.04-2.85,3.81-5.9,8.43-5.9h.02l141.65.23h.02c2.27,0,4.51-.77,6.3-2.16l23.59-18.38c3.51-2.73,4.84-7.22,3.39-11.42-1.45-4.2-5.25-6.91-9.68-6.91h-.02l-157.21.3-57.9-47.4c-3.61-2.96-3.8-7.09-2.77-9.97,1.03-2.88,3.79-5.96,8.46-5.96l88.14-.03,31.59,25.92c1.84,1.52,4.14,2.21,6.56,2.33l160.76-.86c2.45-.01,4.82-.91,6.67-2.52l28.47-24.84h94.82c4.28,0,6.78,2.84,7.7,5.49.91,2.65.69,6.43-2.69,9.06l-194.35,151.77c-2.49,1.94-3.92,4.86-3.94,8.02-.02,3.15,1.38,6.09,3.85,8.06l123.19,98.22-160.49.03Z"/>
  <path class="st0" d="M297.9,421.45h126.44l22.55-21.92c3.23-3.14,4.22-7.86,2.53-12.02-1.69-4.17-5.69-6.86-10.19-6.86h-155.58c-4.46,0-8.45,2.67-10.16,6.79-1.71,4.13-.77,8.83,2.38,11.99l22.03,22.03ZM283.07,391.4c.16-.39.44-.39.58-.39h155.58c.15,0,.43,0,.59.39s-.04.59-.15.69l-19.54,18.98h-117.94l-18.99-18.99c-.1-.1-.3-.3-.14-.69Z"/>
  <path class="st0" d="M962.72,421.45h126.44l22.55-21.92c3.23-3.14,4.22-7.86,2.53-12.02-1.69-4.17-5.69-6.86-10.19-6.86h-155.58c-4.46,0-8.45,2.67-10.16,6.79-1.71,4.13-.77,8.83,2.38,11.99l22.03,22.03ZM947.89,391.4c.16-.39.44-.39.58-.39h155.58c.15,0,.43,0,.59.39s-.04.59-.15.69l-19.54,18.98h-117.94l-18.99-18.99c-.1-.1-.3-.3-.14-.69Z"/>
  <path class="st0" d="M1125.93,669.01l-99.48-74.04c-1.66-1.23-2.62-3.12-2.64-5.19-.02-2.07.9-3.98,2.53-5.24l201.43-156.86c5.79-4.51,7.99-11.91,5.61-18.85-2.38-6.94-8.67-11.43-16-11.43h-67.69c-3.72,0-7.38,1.25-10.32,3.51l-30.72,23.65c-1.14.88-2.56,1.36-4,1.36h-153.33c-1.4,0-2.73-.44-3.86-1.26l-32.93-24.02c-2.91-2.13-6.36-3.25-9.97-3.25h-66.92c-7.26,0-13.52,4.42-15.94,11.26-2.43,6.84-.36,14.22,5.27,18.8l65.21,52.98c3.01,2.44,6.8,3.79,10.67,3.79h78.66c4.06,0,5.66,3.1,6.06,4.05s1.45,4.27-1.42,7.14l-5.34,5.34c-1.24,1.24-2.89,1.92-4.64,1.92h-67.5c-1.48,0-2.93-.51-4.08-1.43l-123.56-98.4c-2.98-2.38-6.73-3.69-10.54-3.69h-118.09c-3.69,0-7.33,1.23-10.26,3.47l-217.59,166.02c-4.02,3.07-6.45,7.73-6.64,12.79-.2,5.06,1.85,9.9,5.62,13.27l43.62,39.02c6.07,5.43,15.17,5.77,21.61.79l191.73-147.76c1.14-.88,2.56-1.36,4-1.36h51.43c1.73,0,3.41.7,4.63,1.92l3.14,3.14c2.87,2.87,1.81,6.19,1.42,7.14-.39.95-1.99,4.05-6.06,4.05h-48.15c-3.67,0-7.3,1.22-10.22,3.44l-43.72,33.14c-5.89,4.46-8.17,11.87-5.82,18.87,2.35,7.01,8.65,11.53,16.04,11.53h69.57c1.45,0,2.88.49,4.03,1.38l20.11,15.64c2.95,2.3,6.64,3.56,10.39,3.56h118c1.6,0,3.13.58,4.33,1.64l39.45,34.73c1.41,1.25,2.22,3.04,2.22,4.92v23.21c0,5.13,2.29,9.92,6.27,13.15l35.65,28.86c3,2.43,6.78,3.77,10.64,3.77h148.03c7.42,0,13.73-4.55,16.06-11.6,2.34-7.05,0-14.47-5.96-18.9ZM1122.05,684.64c-.35,1.06-1.83,4.49-6.22,4.49h-148.03c-1.5,0-2.96-.52-4.12-1.46l-35.65-28.85c-1.55-1.25-2.43-3.11-2.43-5.1v-23.21c0-4.86-2.09-9.49-5.74-12.7l-39.45-34.73c-3.09-2.72-7.06-4.22-11.18-4.22h-118c-1.45,0-2.88-.49-4.02-1.38l-20.11-15.64c-2.96-2.3-6.65-3.57-10.39-3.57h-69.57c-4.37,0-5.86-3.42-6.21-4.47-.35-1.05-1.23-4.67,2.25-7.31l43.72-33.13c1.13-.86,2.54-1.33,3.96-1.33h48.15c6.97,0,12.96-4,15.63-10.45,2.67-6.44,1.26-13.51-3.67-18.44l-3.14-3.14c-3.19-3.2-7.44-4.96-11.97-4.96h-51.43c-3.72,0-7.38,1.25-10.33,3.52l-191.73,147.76c-2.5,1.93-6.02,1.8-8.37-.31l-43.61-39.02c-1.46-1.31-2.25-3.18-2.18-5.14.08-1.96,1.02-3.77,2.57-4.96l217.59-166.02c1.13-.87,2.55-1.34,3.98-1.34h118.09c1.48,0,2.93.51,4.08,1.43l123.56,98.4c2.98,2.38,6.73,3.68,10.54,3.68h67.5c4.52,0,8.77-1.76,11.97-4.96l5.34-5.34c4.93-4.93,6.34-12,3.67-18.44-2.67-6.44-8.66-10.45-15.63-10.45h-78.66c-1.5,0-2.97-.52-4.13-1.47l-65.21-52.98c-3.33-2.71-2.41-6.26-2.04-7.28.36-1.02,1.88-4.36,6.18-4.36h66.92c1.4,0,2.73.44,3.86,1.26l32.93,24.02c2.92,2.12,6.36,3.25,9.97,3.25h153.33c3.71,0,7.38-1.25,10.32-3.51l30.73-23.65c1.14-.88,2.56-1.36,4-1.36h67.69c4.34,0,5.84,3.39,6.2,4.43.36,1.04,1.25,4.63-2.17,7.3l-201.43,156.86c-4.2,3.27-6.58,8.21-6.52,13.54.06,5.33,2.54,10.21,6.82,13.39l99.48,74.04c3.52,2.62,2.66,6.27,2.31,7.32Z"/>
  <path class="st0" d="M1776.96,452.92l-89.47-69.7c-3.1-2.42-6.98-3.75-10.91-3.75h-72.52c-3.93,0-7.81,1.33-10.92,3.75l-19.21,14.98c-1.29,1.01-2.91,1.56-4.54,1.56h-283.36c-3.95,0-7.84,1.34-10.96,3.78l-217.11,170.24c-4.27,3.35-6.75,8.38-6.8,13.81-.05,5.43,2.34,10.5,6.54,13.93l41.9,34.12c6.36,5.18,15.39,5.34,21.93.38l61.54-46.62c1.28-.97,2.86-1.5,4.46-1.5h67.5c4.18,0,8.25-1.48,11.44-4.18l15.48-13.05c1.33-1.12,3.02-1.74,4.76-1.74h95.07c4.04,0,7.99-1.4,11.14-3.93l41.59-33.52c5.94-4.79,8.14-12.54,5.6-19.73-2.54-7.2-9.11-11.85-16.74-11.85h-98.74c-4.64,0-6.43-3.56-6.86-4.65-.44-1.09-1.59-4.9,1.77-8.1,1.38-1.31,3.19-2.03,5.09-2.03h161.53c3.9,0,6.17,2.58,6.99,5,.83,2.42.61,5.85-2.47,8.23l-214.39,165.82c-6.1,4.72-8.43,12.49-5.94,19.78,2.49,7.3,9.09,12.02,16.8,12.02h143.14c4.05,0,8.01-1.4,11.16-3.95l44.81-36.22c4.19-3.39,6.59-8.42,6.59-13.81v-25.81c0-2.29,1.03-4.41,2.83-5.82l158.51-124.12c1.29-1.01,2.91-1.57,4.55-1.57h107.28c7.7,0,14.29-4.71,16.79-11.99,2.5-7.28.19-15.04-5.88-19.77ZM1773.03,469.32c-.83,2.41-3.1,4.99-6.99,4.99h-107.28c-3.95,0-7.84,1.34-10.94,3.78l-158.51,124.12c-4.33,3.39-6.81,8.48-6.81,13.98v25.81c0,2.24-1,4.34-2.74,5.75l-44.81,36.22c-1.31,1.06-2.96,1.64-4.64,1.64h-143.14c-3.89,0-6.17-2.58-6.99-5-.83-2.42-.61-5.85,2.47-8.23l214.39-165.82c6.1-4.72,8.43-12.49,5.94-19.78-2.49-7.3-9.09-12.01-16.8-12.01h-161.53c-4.57,0-8.92,1.73-12.23,4.88-5.3,5.03-6.97,12.67-4.26,19.46,2.71,6.79,9.18,11.17,16.49,11.17h98.74c4.85,0,6.56,3.77,6.97,4.93.84,2.38.67,5.79-2.33,8.21l-41.59,33.52c-1.31,1.06-2.96,1.64-4.64,1.64h-95.07c-4.18,0-8.25,1.48-11.44,4.18l-15.48,13.05c-1.33,1.12-3.02,1.74-4.76,1.74h-67.5c-3.85,0-7.65,1.28-10.72,3.6l-61.54,46.63c-2.73,2.07-6.48,2-9.13-.16l-41.9-34.12c-1.75-1.43-2.74-3.54-2.72-5.8.02-2.26,1.05-4.35,2.83-5.75l217.11-170.23c1.3-1.02,2.92-1.57,4.56-1.57h283.36c3.93,0,7.81-1.33,10.92-3.75l19.21-14.98c1.29-1.01,2.91-1.56,4.54-1.56h72.52c1.64,0,3.25.55,4.54,1.56l89.47,69.7c3.07,2.39,3.28,5.82,2.45,8.23Z"/>
</svg>